<?xml version="1.0" encoding="UTF-8" standalone="no"?>
<!-- Created with Inkscape (http://www.inkscape.org/) -->

<svg
   sodipodi:docname="ITree_ALL.svg"
   inkscape:version="1.2.2 (1:1.2.2+202212051552+b0a8486541)"
   id="svg5"
   version="1.1"
   viewBox="0 0 27.794919 31.09718"
   height="31.097179mm"
   width="27.794918mm"
   xmlns:inkscape="http://www.inkscape.org/namespaces/inkscape"
   xmlns:sodipodi="http://sodipodi.sourceforge.net/DTD/sodipodi-0.dtd"
   xmlns="http://www.w3.org/2000/svg"
   xmlns:svg="http://www.w3.org/2000/svg"
   xmlns:ns1="http://www.iki.fi/pav/software/textext/">
  <sodipodi:namedview
     id="namedview7"
     pagecolor="#ffffff"
     bordercolor="#000000"
     borderopacity="0.25"
     inkscape:showpageshadow="2"
     inkscape:pageopacity="0.0"
     inkscape:pagecheckerboard="0"
     inkscape:deskcolor="#d1d1d1"
     inkscape:document-units="mm"
     showgrid="true"
     inkscape:zoom="2.587745"
     inkscape:cx="702.73539"
     inkscape:cy="544.68273"
     inkscape:window-width="3840"
     inkscape:window-height="2097"
     inkscape:window-x="3840"
     inkscape:window-y="0"
     inkscape:window-maximized="1"
     inkscape:current-layer="layer1">
    <inkscape:grid
       type="xygrid"
       id="grid8427"
       originx="0"
       originy="0" />
  </sodipodi:namedview>
  <defs
     id="defs2" />
  <g
     inkscape:label="Layer 1"
     inkscape:groupmode="layer"
     id="layer1"
     transform="translate(-95.181641,-5.6762584)">
    <g
       id="ITree_1">
      <g
         id="g1693"
         transform="translate(1.1018333,-106.30258)">
        <path
           id="path72"
           style="fill:#808080;stroke-width:0.264583"
           transform="scale(-1,1)"
           d="m -116.10004,119.00837 a 0.39687499,0.39687499 0 0 1 -0.39688,0.39687 0.39687499,0.39687499 0 0 1 -0.39687,-0.39687 0.39687499,0.39687499 0 0 1 0.39687,-0.39688 0.39687499,0.39687499 0 0 1 0.39688,0.39688 z" />
        <path
           id="circle124"
           style="fill:#808080;stroke-width:0.264583"
           transform="scale(-1,1)"
           d="m -104.01648,119.49049 a 0.39687499,0.39687499 0 0 1 -0.39687,0.39688 0.39687499,0.39687499 0 0 1 -0.39688,-0.39688 0.39687499,0.39687499 0 0 1 0.39688,-0.39687 0.39687499,0.39687499 0 0 1 0.39687,0.39687 z" />
        <path
           id="circle126"
           style="fill:#808080;stroke-width:0.264583"
           transform="scale(-1,1)"
           d="m -102.14777,125.68122 a 0.39687499,0.39687499 0 0 1 -0.39688,0.39688 0.39687499,0.39687499 0 0 1 -0.39687,-0.39688 0.39687499,0.39687499 0 0 1 0.39687,-0.39687 0.39687499,0.39687499 0 0 1 0.39688,0.39687 z" />
        <path
           id="circle128"
           style="fill:#808080;stroke-width:0.264583"
           transform="scale(-1,1)"
           d="m -103.77444,118.98114 a 0.39687499,0.39687499 0 0 1 -0.39687,0.39688 0.39687499,0.39687499 0 0 1 -0.39688,-0.39688 0.39687499,0.39687499 0 0 1 0.39688,-0.39687 0.39687499,0.39687499 0 0 1 0.39687,0.39687 z" />
        <path
           id="circle130"
           style="fill:#808080;stroke-width:0.264583"
           transform="scale(-1,1)"
           d="m -109.93728,127.83385 a 0.39687499,0.39687499 0 0 1 -0.39688,0.39687 0.39687499,0.39687499 0 0 1 -0.39687,-0.39687 0.39687499,0.39687499 0 0 1 0.39687,-0.39688 0.39687499,0.39687499 0 0 1 0.39688,0.39688 z" />
        <path
           id="circle132"
           style="fill:#808080;stroke-width:0.264583"
           transform="scale(-1,1)"
           d="m -102.97404,129.71851 a 0.39687499,0.39687499 0 0 1 -0.39687,0.39687 0.39687499,0.39687499 0 0 1 -0.39688,-0.39687 0.39687499,0.39687499 0 0 1 0.39688,-0.39688 0.39687499,0.39687499 0 0 1 0.39687,0.39688 z" />
        <path
           id="circle134"
           style="fill:#808080;stroke-width:0.264583"
           transform="scale(-1,1)"
           d="m -107.71399,121.96494 a 0.39687499,0.39687499 0 0 1 -0.39687,0.39688 0.39687499,0.39687499 0 0 1 -0.39688,-0.39688 0.39687499,0.39687499 0 0 1 0.39688,-0.39687 0.39687499,0.39687499 0 0 1 0.39687,0.39687 z" />
        <path
           id="circle136"
           style="fill:#808080;stroke-width:0.264583"
           transform="scale(-1,1)"
           d="m -101.77052,121.56404 a 0.39687499,0.39687499 0 0 1 -0.39688,0.39688 0.39687499,0.39687499 0 0 1 -0.39687,-0.39688 0.39687499,0.39687499 0 0 1 0.39687,-0.39687 0.39687499,0.39687499 0 0 1 0.39688,0.39687 z" />
        <path
           id="circle138"
           style="fill:#808080;stroke-width:0.264583"
           transform="scale(-1,1)"
           d="m -116.13068,127.05664 a 0.39687499,0.39687499 0 0 1 -0.39688,0.39688 0.39687499,0.39687499 0 0 1 -0.39687,-0.39688 0.39687499,0.39687499 0 0 1 0.39687,-0.39687 0.39687499,0.39687499 0 0 1 0.39688,0.39687 z" />
        <path
           id="circle140"
           style="fill:#808080;stroke-width:0.264583"
           transform="scale(-1,1)"
           d="m -104.40166,123.51415 a 0.39687499,0.39687499 0 0 1 -0.39688,0.39688 0.39687499,0.39687499 0 0 1 -0.39687,-0.39688 0.39687499,0.39687499 0 0 1 0.39687,-0.39687 0.39687499,0.39687499 0 0 1 0.39688,0.39687 z" />
        <path
           id="circle142"
           style="fill:#808080;stroke-width:0.264583"
           transform="scale(-1,1)"
           d="m -106.19828,129.21437 a 0.39687499,0.39687499 0 0 1 -0.39687,0.39688 0.39687499,0.39687499 0 0 1 -0.39688,-0.39688 0.39687499,0.39687499 0 0 1 0.39688,-0.39687 0.39687499,0.39687499 0 0 1 0.39687,0.39687 z" />
        <path
           id="circle144"
           style="fill:#808080;stroke-width:0.264583"
           transform="scale(-1,1)"
           d="m -102.55028,120.50263 a 0.39687499,0.39687499 0 0 1 -0.39687,0.39688 0.39687499,0.39687499 0 0 1 -0.39688,-0.39688 0.39687499,0.39687499 0 0 1 0.39688,-0.39687 0.39687499,0.39687499 0 0 1 0.39687,0.39687 z" />
        <path
           id="circle146"
           style="fill:#808080;stroke-width:0.264583"
           transform="scale(-1,1)"
           d="m -105.75661,117.56512 a 0.39687499,0.39687499 0 0 1 -0.39687,0.39687 0.39687499,0.39687499 0 0 1 -0.39688,-0.39687 0.39687499,0.39687499 0 0 1 0.39688,-0.39688 0.39687499,0.39687499 0 0 1 0.39687,0.39688 z" />
        <path
           id="circle148"
           style="fill:#808080;stroke-width:0.264583"
           transform="scale(-1,1)"
           d="m -103.17569,120.41072 a 0.39687499,0.39687499 0 0 1 -0.39687,0.39688 0.39687499,0.39687499 0 0 1 -0.39688,-0.39688 0.39687499,0.39687499 0 0 1 0.39688,-0.39687 0.39687499,0.39687499 0 0 1 0.39687,0.39687 z" />
        <path
           id="circle150"
           style="fill:#808080;stroke-width:0.264583"
           transform="scale(-1,1)"
           d="m -106.57255,119.96134 a 0.39687499,0.39687499 0 0 1 -0.39687,0.39688 0.39687499,0.39687499 0 0 1 -0.39688,-0.39688 0.39687499,0.39687499 0 0 1 0.39688,-0.39687 0.39687499,0.39687499 0 0 1 0.39687,0.39687 z" />
        <path
           id="circle152"
           style="fill:#808080;stroke-width:0.264583"
           transform="scale(-1,1)"
           d="m -105.57776,124.30116 a 0.39687499,0.39687499 0 0 1 -0.39687,0.39688 0.39687499,0.39687499 0 0 1 -0.39688,-0.39688 0.39687499,0.39687499 0 0 1 0.39688,-0.39687 0.39687499,0.39687499 0 0 1 0.39687,0.39687 z" />
        <path
           id="circle154"
           style="fill:#808080;stroke-width:0.264583"
           transform="scale(-1,1)"
           d="m -100.81608,129.89276 a 0.39687499,0.39687499 0 0 1 -0.39687,0.39688 0.39687499,0.39687499 0 0 1 -0.39688,-0.39688 0.39687499,0.39687499 0 0 1 0.39688,-0.39687 0.39687499,0.39687499 0 0 1 0.39687,0.39687 z" />
        <path
           id="circle156"
           style="fill:#808080;stroke-width:0.264583"
           transform="scale(-1,1)"
           d="m -103.70659,120.645 a 0.39687499,0.39687499 0 0 1 -0.39688,0.39687 0.39687499,0.39687499 0 0 1 -0.39687,-0.39687 0.39687499,0.39687499 0 0 1 0.39687,-0.39688 0.39687499,0.39687499 0 0 1 0.39688,0.39688 z" />
        <path
           id="circle158"
           style="fill:#808080;stroke-width:0.264583"
           transform="scale(-1,1)"
           d="m -110.61632,131.30788 a 0.39687499,0.39687499 0 0 1 -0.39687,0.39687 0.39687499,0.39687499 0 0 1 -0.39688,-0.39687 0.39687499,0.39687499 0 0 1 0.39688,-0.39688 0.39687499,0.39687499 0 0 1 0.39687,0.39688 z" />
        <path
           id="circle667"
           style="fill:#808080;stroke-width:0.264583"
           transform="scale(-1,1)"
           d="m -116.21859,124.5477 a 0.39687499,0.39687499 0 0 1 -0.39687,0.39687 0.39687499,0.39687499 0 0 1 -0.39688,-0.39687 0.39687499,0.39687499 0 0 1 0.39688,-0.39688 0.39687499,0.39687499 0 0 1 0.39687,0.39688 z" />
        <path
           id="circle669"
           style="fill:#808080;stroke-width:0.264583"
           transform="scale(-1,1)"
           d="m -106.58461,123.24273 a 0.39687499,0.39687499 0 0 1 -0.39687,0.39687 0.39687499,0.39687499 0 0 1 -0.39688,-0.39687 0.39687499,0.39687499 0 0 1 0.39688,-0.39688 0.39687499,0.39687499 0 0 1 0.39687,0.39688 z" />
        <path
           id="circle671"
           style="fill:#808080;stroke-width:0.264583"
           transform="scale(-1,1)"
           d="m -111.17496,130.25233 a 0.39687499,0.39687499 0 0 1 -0.39687,0.39688 0.39687499,0.39687499 0 0 1 -0.39688,-0.39688 0.39687499,0.39687499 0 0 1 0.39688,-0.39687 0.39687499,0.39687499 0 0 1 0.39687,0.39687 z" />
        <path
           id="circle673"
           style="fill:#808080;stroke-width:0.264583"
           transform="scale(-1,1)"
           d="m -112.20451,129.09958 a 0.39687499,0.39687499 0 0 1 -0.39688,0.39687 0.39687499,0.39687499 0 0 1 -0.39687,-0.39687 0.39687499,0.39687499 0 0 1 0.39687,-0.39688 0.39687499,0.39687499 0 0 1 0.39688,0.39688 z" />
        <path
           id="circle675"
           style="fill:#808080;stroke-width:0.264583"
           transform="scale(-1,1)"
           d="m -105.67592,119.25551 a 0.39687499,0.39687499 0 0 1 -0.39688,0.39687 0.39687499,0.39687499 0 0 1 -0.39687,-0.39687 0.39687499,0.39687499 0 0 1 0.39687,-0.39688 0.39687499,0.39687499 0 0 1 0.39688,0.39688 z" />
        <path
           id="circle677"
           style="fill:#808080;stroke-width:0.264583"
           transform="scale(-1,1)"
           d="m -113.37984,124.47361 a 0.39687499,0.39687499 0 0 1 -0.39688,0.39687 0.39687499,0.39687499 0 0 1 -0.39687,-0.39687 0.39687499,0.39687499 0 0 1 0.39687,-0.39688 0.39687499,0.39687499 0 0 1 0.39688,0.39688 z" />
        <path
           id="circle679"
           style="fill:#808080;stroke-width:0.264583"
           transform="scale(-1,1)"
           d="m -110.93742,125.14404 a 0.39687499,0.39687499 0 0 1 -0.39688,0.39688 0.39687499,0.39687499 0 0 1 -0.39687,-0.39688 0.39687499,0.39687499 0 0 1 0.39687,-0.39687 0.39687499,0.39687499 0 0 1 0.39688,0.39687 z" />
        <path
           id="circle681"
           style="fill:#808080;stroke-width:0.264583"
           transform="scale(-1,1)"
           d="m -100.16692,121.16392 a 0.39687499,0.39687499 0 0 1 -0.39688,0.39687 0.39687499,0.39687499 0 0 1 -0.39687,-0.39687 0.39687499,0.39687499 0 0 1 0.39687,-0.39688 0.39687499,0.39687499 0 0 1 0.39688,0.39688 z" />
        <path
           id="circle683"
           style="fill:#808080;stroke-width:0.264583"
           transform="scale(-1,1)"
           d="m -101.69225,118.38403 a 0.39687499,0.39687499 0 0 1 -0.39688,0.39688 0.39687499,0.39687499 0 0 1 -0.39687,-0.39688 0.39687499,0.39687499 0 0 1 0.39687,-0.39687 0.39687499,0.39687499 0 0 1 0.39688,0.39687 z" />
        <path
           id="circle685"
           style="fill:#808080;stroke-width:0.264583"
           transform="scale(-1,1)"
           d="m -108.44652,127.74654 a 0.39687499,0.39687499 0 0 1 -0.39687,0.39687 0.39687499,0.39687499 0 0 1 -0.39688,-0.39687 0.39687499,0.39687499 0 0 1 0.39688,-0.39688 0.39687499,0.39687499 0 0 1 0.39687,0.39688 z" />
        <path
           id="circle687"
           style="fill:#808080;stroke-width:0.264583"
           transform="scale(-1,1)"
           d="m -112.20167,123.42757 a 0.39687499,0.39687499 0 0 1 -0.39688,0.39687 0.39687499,0.39687499 0 0 1 -0.39687,-0.39687 0.39687499,0.39687499 0 0 1 0.39687,-0.39688 0.39687499,0.39687499 0 0 1 0.39688,0.39688 z" />
        <path
           id="circle689"
           style="fill:#808080;stroke-width:0.264583"
           transform="scale(-1,1)"
           d="m -102.22094,129.86697 a 0.39687499,0.39687499 0 0 1 -0.39687,0.39688 0.39687499,0.39687499 0 0 1 -0.39688,-0.39688 0.39687499,0.39687499 0 0 1 0.39688,-0.39687 0.39687499,0.39687499 0 0 1 0.39687,0.39687 z" />
        <path
           id="circle691"
           style="fill:#808080;stroke-width:0.264583"
           transform="scale(-1,1)"
           d="m -102.03571,122.58224 a 0.39687499,0.39687499 0 0 1 -0.39688,0.39687 0.39687499,0.39687499 0 0 1 -0.39687,-0.39687 0.39687499,0.39687499 0 0 1 0.39687,-0.39688 0.39687499,0.39687499 0 0 1 0.39688,0.39688 z" />
        <path
           id="circle693"
           style="fill:#808080;stroke-width:0.264583"
           transform="scale(-1,1)"
           d="m -115.96492,124.73331 a 0.39687499,0.39687499 0 0 1 -0.39687,0.39687 0.39687499,0.39687499 0 0 1 -0.39688,-0.39687 0.39687499,0.39687499 0 0 1 0.39688,-0.39688 0.39687499,0.39687499 0 0 1 0.39687,0.39688 z" />
        <path
           id="circle695"
           style="fill:#808080;stroke-width:0.264583"
           transform="scale(-1,1)"
           d="m -105.61545,120.75141 a 0.39687499,0.39687499 0 0 1 -0.39688,0.39688 0.39687499,0.39687499 0 0 1 -0.39687,-0.39688 0.39687499,0.39687499 0 0 1 0.39687,-0.39687 0.39687499,0.39687499 0 0 1 0.39688,0.39687 z" />
        <path
           id="circle697"
           style="fill:#808080;stroke-width:0.264583"
           transform="scale(-1,1)"
           d="m -102.51167,126.23975 a 0.39687499,0.39687499 0 0 1 -0.39688,0.39688 0.39687499,0.39687499 0 0 1 -0.39687,-0.39688 0.39687499,0.39687499 0 0 1 0.39687,-0.39687 0.39687499,0.39687499 0 0 1 0.39688,0.39687 z" />
        <path
           id="circle699"
           style="fill:#808080;stroke-width:0.264583"
           transform="scale(-1,1)"
           d="m -108.88242,120.22669 a 0.39687499,0.39687499 0 0 1 -0.39688,0.39688 0.39687499,0.39687499 0 0 1 -0.39687,-0.39688 0.39687499,0.39687499 0 0 1 0.39687,-0.39687 0.39687499,0.39687499 0 0 1 0.39688,0.39687 z" />
        <path
           id="circle701"
           style="fill:#808080;stroke-width:0.264583"
           transform="scale(-1,1)"
           d="m -101.02818,132.22577 a 0.39687499,0.39687499 0 0 1 -0.39688,0.39687 0.39687499,0.39687499 0 0 1 -0.39687,-0.39687 0.39687499,0.39687499 0 0 1 0.39687,-0.39688 0.39687499,0.39687499 0 0 1 0.39688,0.39688 z" />
        <path
           id="circle703"
           style="fill:#808080;stroke-width:0.264583"
           transform="scale(-1,1)"
           d="m -107.05163,122.2314 a 0.39687499,0.39687499 0 0 1 -0.39687,0.39687 0.39687499,0.39687499 0 0 1 -0.39688,-0.39687 0.39687499,0.39687499 0 0 1 0.39688,-0.39688 0.39687499,0.39687499 0 0 1 0.39687,0.39688 z" />
        <path
           id="circle705"
           style="fill:#808080;stroke-width:0.264583"
           transform="scale(-1,1)"
           d="m -104.72735,116.68361 a 0.39687499,0.39687499 0 0 1 -0.39687,0.39687 0.39687499,0.39687499 0 0 1 -0.39688,-0.39687 0.39687499,0.39687499 0 0 1 0.39688,-0.39688 0.39687499,0.39687499 0 0 1 0.39687,0.39688 z" />
        <path
           id="circle707"
           style="fill:#808080;stroke-width:0.264583"
           transform="scale(-1,1)"
           d="m -107.4526,125.62106 a 0.39687499,0.39687499 0 0 1 -0.39687,0.39688 0.39687499,0.39687499 0 0 1 -0.39688,-0.39688 0.39687499,0.39687499 0 0 1 0.39688,-0.39687 0.39687499,0.39687499 0 0 1 0.39687,0.39687 z" />
        <path
           id="circle709"
           style="fill:#808080;stroke-width:0.264583"
           transform="scale(-1,1)"
           d="m -116.39197,129.79495 a 0.39687499,0.39687499 0 0 1 -0.39688,0.39688 0.39687499,0.39687499 0 0 1 -0.39687,-0.39688 0.39687499,0.39687499 0 0 1 0.39687,-0.39687 0.39687499,0.39687499 0 0 1 0.39688,0.39687 z" />
        <path
           id="circle711"
           style="fill:#808080;stroke-width:0.264583"
           transform="scale(-1,1)"
           d="m -101.21965,122.8794 a 0.39687499,0.39687499 0 0 1 -0.39687,0.39688 0.39687499,0.39687499 0 0 1 -0.39688,-0.39688 0.39687499,0.39687499 0 0 1 0.39688,-0.39687 0.39687499,0.39687499 0 0 1 0.39687,0.39687 z" />
        <path
           id="circle713"
           style="fill:#808080;stroke-width:0.264583"
           transform="scale(-1,1)"
           d="m -116.27408,119.40224 a 0.39687499,0.39687499 0 0 1 -0.39687,0.39687 0.39687499,0.39687499 0 0 1 -0.39688,-0.39687 0.39687499,0.39687499 0 0 1 0.39688,-0.39688 0.39687499,0.39687499 0 0 1 0.39687,0.39688 z" />
        <path
           id="circle715"
           style="fill:#808080;stroke-width:0.264583"
           transform="scale(-1,1)"
           d="m -113.74931,123.35067 a 0.39687499,0.39687499 0 0 1 -0.39688,0.39687 0.39687499,0.39687499 0 0 1 -0.39687,-0.39687 0.39687499,0.39687499 0 0 1 0.39687,-0.39688 0.39687499,0.39687499 0 0 1 0.39688,0.39688 z" />
        <path
           id="circle717"
           style="fill:#808080;stroke-width:0.264583"
           transform="scale(-1,1)"
           d="m -101.97691,119.95393 a 0.39687499,0.39687499 0 0 1 -0.39688,0.39688 0.39687499,0.39687499 0 0 1 -0.39687,-0.39688 0.39687499,0.39687499 0 0 1 0.39687,-0.39687 0.39687499,0.39687499 0 0 1 0.39688,0.39687 z" />
        <path
           id="circle719"
           style="fill:#808080;stroke-width:0.264583"
           transform="scale(-1,1)"
           d="m -111.99502,125.10854 a 0.39687499,0.39687499 0 0 1 -0.39687,0.39688 0.39687499,0.39687499 0 0 1 -0.39688,-0.39688 0.39687499,0.39687499 0 0 1 0.39688,-0.39687 0.39687499,0.39687499 0 0 1 0.39687,0.39687 z" />
        <path
           id="circle721"
           style="fill:#808080;stroke-width:0.264583"
           transform="scale(-1,1)"
           d="m -110.98795,122.7027 a 0.39687499,0.39687499 0 0 1 -0.39688,0.39687 0.39687499,0.39687499 0 0 1 -0.39687,-0.39687 0.39687499,0.39687499 0 0 1 0.39687,-0.39688 0.39687499,0.39687499 0 0 1 0.39688,0.39688 z" />
        <path
           id="circle723"
           style="fill:#808080;stroke-width:0.264583"
           transform="scale(-1,1)"
           d="m -99.845091,122.74387 a 0.39687499,0.39687499 0 0 1 -0.396879,0.39688 0.39687499,0.39687499 0 0 1 -0.39687,-0.39688 0.39687499,0.39687499 0 0 1 0.39687,-0.39687 0.39687499,0.39687499 0 0 1 0.396879,0.39687 z" />
        <path
           id="circle725"
           style="fill:#808080;stroke-width:0.264583"
           transform="scale(-1,1)"
           d="m -101.44893,130.07991 a 0.39687499,0.39687499 0 0 1 -0.39687,0.39688 0.39687499,0.39687499 0 0 1 -0.39688,-0.39688 0.39687499,0.39687499 0 0 1 0.39688,-0.39687 0.39687499,0.39687499 0 0 1 0.39687,0.39687 z" />
        <path
           id="circle727"
           style="fill:#808080;stroke-width:0.264583"
           transform="scale(-1,1)"
           d="m -104.35373,118.73002 a 0.39687499,0.39687499 0 0 1 -0.39687,0.39687 0.39687499,0.39687499 0 0 1 -0.39688,-0.39687 0.39687499,0.39687499 0 0 1 0.39688,-0.39688 0.39687499,0.39687499 0 0 1 0.39687,0.39688 z" />
        <path
           id="circle729"
           style="fill:#808080;stroke-width:0.264583"
           transform="scale(-1,1)"
           d="m -108.00338,124.67155 a 0.39687499,0.39687499 0 0 1 -0.39687,0.39687 0.39687499,0.39687499 0 0 1 -0.39688,-0.39687 0.39687499,0.39687499 0 0 1 0.39688,-0.39688 0.39687499,0.39687499 0 0 1 0.39687,0.39688 z" />
        <path
           id="circle731"
           style="fill:#808080;stroke-width:0.264583"
           transform="scale(-1,1)"
           d="m -111.33622,129.24463 a 0.39687499,0.39687499 0 0 1 -0.39687,0.39687 0.39687499,0.39687499 0 0 1 -0.39688,-0.39687 0.39687499,0.39687499 0 0 1 0.39688,-0.39688 0.39687499,0.39687499 0 0 1 0.39687,0.39688 z" />
        <path
           id="circle733"
           style="fill:#808080;stroke-width:0.264583"
           transform="scale(-1,1)"
           d="m -110.45231,119.02024 a 0.39687499,0.39687499 0 0 1 -0.39688,0.39688 0.39687499,0.39687499 0 0 1 -0.39687,-0.39688 0.39687499,0.39687499 0 0 1 0.39687,-0.39687 0.39687499,0.39687499 0 0 1 0.39688,0.39687 z" />
        <path
           id="circle735"
           style="fill:#808080;stroke-width:0.264583"
           transform="scale(-1,1)"
           d="m -104.31766,124.9388 a 0.39687499,0.39687499 0 0 1 -0.39688,0.39687 0.39687499,0.39687499 0 0 1 -0.39687,-0.39687 0.39687499,0.39687499 0 0 1 0.39687,-0.39688 0.39687499,0.39687499 0 0 1 0.39688,0.39688 z" />
        <path
           id="circle737"
           style="fill:#808080;stroke-width:0.264583"
           transform="scale(-1,1)"
           d="m -101.50287,121.3316 a 0.39687499,0.39687499 0 0 1 -0.39688,0.39687 0.39687499,0.39687499 0 0 1 -0.39687,-0.39687 0.39687499,0.39687499 0 0 1 0.39687,-0.39688 0.39687499,0.39687499 0 0 1 0.39688,0.39688 z" />
        <path
           id="circle739"
           style="fill:#808080;stroke-width:0.264583"
           transform="scale(-1,1)"
           d="m -105.82232,119.66127 a 0.39687499,0.39687499 0 0 1 -0.39687,0.39688 0.39687499,0.39687499 0 0 1 -0.39688,-0.39688 0.39687499,0.39687499 0 0 1 0.39688,-0.39687 0.39687499,0.39687499 0 0 1 0.39687,0.39687 z" />
        <path
           id="circle741"
           style="fill:#808080;stroke-width:0.264583"
           transform="scale(-1,1)"
           d="m -109.96048,127.02834 a 0.39687499,0.39687499 0 0 1 -0.39687,0.39688 0.39687499,0.39687499 0 0 1 -0.39688,-0.39688 0.39687499,0.39687499 0 0 1 0.39688,-0.39687 0.39687499,0.39687499 0 0 1 0.39687,0.39687 z" />
        <path
           id="circle743"
           style="fill:#808080;stroke-width:0.264583"
           transform="scale(-1,1)"
           d="m -108.45647,134.46925 a 0.39687499,0.39687499 0 0 1 -0.39688,0.39688 0.39687499,0.39687499 0 0 1 -0.39687,-0.39688 0.39687499,0.39687499 0 0 1 0.39687,-0.39687 0.39687499,0.39687499 0 0 1 0.39688,0.39687 z" />
        <path
           id="circle745"
           style="fill:#808080;stroke-width:0.264583"
           transform="scale(-1,1)"
           d="m -102.28286,124.26221 a 0.39687499,0.39687499 0 0 1 -0.39687,0.39687 0.39687499,0.39687499 0 0 1 -0.39688,-0.39687 0.39687499,0.39687499 0 0 1 0.39688,-0.39688 0.39687499,0.39687499 0 0 1 0.39687,0.39688 z" />
        <path
           id="circle747"
           style="fill:#808080;stroke-width:0.264583"
           transform="scale(-1,1)"
           d="m -101.23662,119.79105 a 0.39687499,0.39687499 0 0 1 -0.39687,0.39688 0.39687499,0.39687499 0 0 1 -0.39688,-0.39688 0.39687499,0.39687499 0 0 1 0.39688,-0.39687 0.39687499,0.39687499 0 0 1 0.39687,0.39687 z" />
        <path
           id="circle749"
           style="fill:#808080;stroke-width:0.264583"
           transform="scale(-1,1)"
           d="m -100.38981,128.77901 a 0.39687499,0.39687499 0 0 1 -0.39688,0.39687 0.39687499,0.39687499 0 0 1 -0.39687,-0.39687 0.39687499,0.39687499 0 0 1 0.39687,-0.39688 0.39687499,0.39687499 0 0 1 0.39688,0.39688 z" />
        <path
           id="circle751"
           style="fill:#808080;stroke-width:0.264583"
           transform="scale(-1,1)"
           d="m -112.15301,130.81511 a 0.39687499,0.39687499 0 0 1 -0.39687,0.39687 0.39687499,0.39687499 0 0 1 -0.39688,-0.39687 0.39687499,0.39687499 0 0 1 0.39688,-0.39688 0.39687499,0.39687499 0 0 1 0.39687,0.39688 z" />
        <path
           id="circle753"
           style="fill:#808080;stroke-width:0.264583"
           transform="scale(-1,1)"
           d="m -110.10933,123.28206 a 0.39687499,0.39687499 0 0 1 -0.39687,0.39687 0.39687499,0.39687499 0 0 1 -0.39688,-0.39687 0.39687499,0.39687499 0 0 1 0.39688,-0.39688 0.39687499,0.39687499 0 0 1 0.39687,0.39688 z" />
        <path
           id="circle755"
           style="fill:#808080;stroke-width:0.264583"
           transform="scale(-1,1)"
           d="m -103.46098,124.59595 a 0.39687499,0.39687499 0 0 1 -0.39688,0.39687 0.39687499,0.39687499 0 0 1 -0.39687,-0.39687 0.39687499,0.39687499 0 0 1 0.39687,-0.39688 0.39687499,0.39687499 0 0 1 0.39688,0.39688 z" />
        <path
           id="circle757"
           style="fill:#808080;stroke-width:0.264583"
           transform="scale(-1,1)"
           d="m -108.07014,122.05746 a 0.39687499,0.39687499 0 0 1 -0.39687,0.39687 0.39687499,0.39687499 0 0 1 -0.39688,-0.39687 0.39687499,0.39687499 0 0 1 0.39688,-0.39688 0.39687499,0.39687499 0 0 1 0.39687,0.39688 z" />
        <path
           id="circle759"
           style="fill:#808080;stroke-width:0.264583"
           transform="scale(-1,1)"
           d="m -111.66994,125.44482 a 0.39687499,0.39687499 0 0 1 -0.39688,0.39687 0.39687499,0.39687499 0 0 1 -0.39687,-0.39687 0.39687499,0.39687499 0 0 1 0.39687,-0.39688 0.39687499,0.39687499 0 0 1 0.39688,0.39688 z" />
        <path
           id="circle761"
           style="fill:#808080;stroke-width:0.264583"
           transform="scale(-1,1)"
           d="m -109.09742,130.40648 a 0.39687499,0.39687499 0 0 1 -0.39687,0.39687 0.39687499,0.39687499 0 0 1 -0.39688,-0.39687 0.39687499,0.39687499 0 0 1 0.39688,-0.39688 0.39687499,0.39687499 0 0 1 0.39687,0.39688 z" />
        <path
           id="circle763"
           style="fill:#808080;stroke-width:0.264583"
           transform="scale(-1,1)"
           d="m -99.502928,126.44109 a 0.39687499,0.39687499 0 0 1 -0.396875,0.39688 0.39687499,0.39687499 0 0 1 -0.396877,-0.39688 0.39687499,0.39687499 0 0 1 0.396877,-0.39687 0.39687499,0.39687499 0 0 1 0.396875,0.39687 z" />
        <path
           id="circle765"
           style="fill:#808080;stroke-width:0.264583"
           transform="scale(-1,1)"
           d="m -113.5608,129.04178 a 0.39687499,0.39687499 0 0 1 -0.39688,0.39687 0.39687499,0.39687499 0 0 1 -0.39687,-0.39687 0.39687499,0.39687499 0 0 1 0.39687,-0.39688 0.39687499,0.39687499 0 0 1 0.39688,0.39688 z" />
        <path
           id="circle767"
           style="fill:#808080;stroke-width:0.264583"
           transform="scale(-1,1)"
           d="m -113.31219,129.57916 a 0.39687499,0.39687499 0 0 1 -0.39687,0.39688 0.39687499,0.39687499 0 0 1 -0.39688,-0.39688 0.39687499,0.39687499 0 0 1 0.39688,-0.39687 0.39687499,0.39687499 0 0 1 0.39687,0.39687 z" />
        <path
           id="circle769"
           style="fill:#808080;stroke-width:0.264583"
           transform="scale(-1,1)"
           d="m -99.753935,122.44741 a 0.39687499,0.39687499 0 0 1 -0.396875,0.39688 0.39687499,0.39687499 0 0 1 -0.39688,-0.39688 0.39687499,0.39687499 0 0 1 0.39688,-0.39687 0.39687499,0.39687499 0 0 1 0.396875,0.39687 z" />
        <path
           id="circle771"
           style="fill:#808080;stroke-width:0.264583"
           transform="scale(-1,1)"
           d="m -104.01044,131.00867 a 0.39687499,0.39687499 0 0 1 -0.39688,0.39687 0.39687499,0.39687499 0 0 1 -0.39687,-0.39687 0.39687499,0.39687499 0 0 1 0.39687,-0.39688 0.39687499,0.39687499 0 0 1 0.39688,0.39688 z" />
        <path
           id="circle773"
           style="fill:#808080;stroke-width:0.264583"
           transform="scale(-1,1)"
           d="m -107.01294,121.45647 a 0.39687499,0.39687499 0 0 1 -0.39687,0.39687 0.39687499,0.39687499 0 0 1 -0.39688,-0.39687 0.39687499,0.39687499 0 0 1 0.39688,-0.39688 0.39687499,0.39687499 0 0 1 0.39687,0.39688 z" />
        <path
           id="circle775"
           style="fill:#808080;stroke-width:0.264583"
           transform="scale(-1,1)"
           d="m -99.079459,122.93317 a 0.39687499,0.39687499 0 0 1 -0.396875,0.39687 0.39687499,0.39687499 0 0 1 -0.396875,-0.39687 0.39687499,0.39687499 0 0 1 0.396875,-0.39688 0.39687499,0.39687499 0 0 1 0.396875,0.39688 z" />
        <path
           id="circle777"
           style="fill:#808080;stroke-width:0.264583"
           transform="scale(-1,1)"
           d="m -112.79519,125.35279 a 0.39687499,0.39687499 0 0 1 -0.39687,0.39688 0.39687499,0.39687499 0 0 1 -0.39688,-0.39688 0.39687499,0.39687499 0 0 1 0.39688,-0.39687 0.39687499,0.39687499 0 0 1 0.39687,0.39687 z" />
        <path
           id="circle779"
           style="fill:#808080;stroke-width:0.264583"
           transform="scale(-1,1)"
           d="m -107.00545,121.28105 a 0.39687499,0.39687499 0 0 1 -0.39688,0.39688 0.39687499,0.39687499 0 0 1 -0.39687,-0.39688 0.39687499,0.39687499 0 0 1 0.39687,-0.39687 0.39687499,0.39687499 0 0 1 0.39688,0.39687 z" />
        <path
           id="circle781"
           style="fill:#808080;stroke-width:0.264583"
           transform="scale(-1,1)"
           d="m -102.36848,119.10762 a 0.39687499,0.39687499 0 0 1 -0.39687,0.39688 0.39687499,0.39687499 0 0 1 -0.39688,-0.39688 0.39687499,0.39687499 0 0 1 0.39688,-0.39687 0.39687499,0.39687499 0 0 1 0.39687,0.39687 z" />
        <path
           id="circle783"
           style="fill:#808080;stroke-width:0.264583"
           transform="scale(-1,1)"
           d="m -114.3147,130.78513 a 0.39687499,0.39687499 0 0 1 -0.39687,0.39687 0.39687499,0.39687499 0 0 1 -0.39688,-0.39687 0.39687499,0.39687499 0 0 1 0.39688,-0.39688 0.39687499,0.39687499 0 0 1 0.39687,0.39688 z" />
        <path
           id="circle785"
           style="fill:#808080;stroke-width:0.264583"
           transform="scale(-1,1)"
           d="m -108.18966,126.8209 a 0.39687499,0.39687499 0 0 1 -0.39687,0.39687 0.39687499,0.39687499 0 0 1 -0.39688,-0.39687 0.39687499,0.39687499 0 0 1 0.39688,-0.39688 0.39687499,0.39687499 0 0 1 0.39687,0.39688 z" />
        <path
           id="circle787"
           style="fill:#808080;stroke-width:0.264583"
           transform="scale(-1,1)"
           d="m -100.50222,127.26539 a 0.39687499,0.39687499 0 0 1 -0.39687,0.39687 0.39687499,0.39687499 0 0 1 -0.39688,-0.39687 0.39687499,0.39687499 0 0 1 0.39688,-0.39688 0.39687499,0.39687499 0 0 1 0.39687,0.39688 z" />
        <path
           id="circle789"
           style="fill:#808080;stroke-width:0.264583"
           transform="scale(-1,1)"
           d="m -103.66605,129.0854 a 0.39687499,0.39687499 0 0 1 -0.39688,0.39688 0.39687499,0.39687499 0 0 1 -0.39687,-0.39688 0.39687499,0.39687499 0 0 1 0.39687,-0.39687 0.39687499,0.39687499 0 0 1 0.39688,0.39687 z" />
        <path
           id="circle791"
           style="fill:#808080;stroke-width:0.264583"
           transform="scale(-1,1)"
           d="m -107.63282,138.57159 a 0.39687499,0.39687499 0 0 1 -0.39687,0.39688 0.39687499,0.39687499 0 0 1 -0.39688,-0.39688 0.39687499,0.39687499 0 0 1 0.39688,-0.39687 0.39687499,0.39687499 0 0 1 0.39687,0.39687 z" />
        <path
           id="circle793"
           style="fill:#808080;stroke-width:0.264583"
           transform="scale(-1,1)"
           d="m -112.09579,124.17735 a 0.39687499,0.39687499 0 0 1 -0.39687,0.39688 0.39687499,0.39687499 0 0 1 -0.39688,-0.39688 0.39687499,0.39687499 0 0 1 0.39688,-0.39687 0.39687499,0.39687499 0 0 1 0.39687,0.39687 z" />
        <path
           id="circle795"
           style="fill:#808080;stroke-width:0.264583"
           transform="scale(-1,1)"
           d="m -99.485236,122.29132 a 0.39687499,0.39687499 0 0 1 -0.396875,0.39688 0.39687499,0.39687499 0 0 1 -0.396879,-0.39688 0.39687499,0.39687499 0 0 1 0.396879,-0.39687 0.39687499,0.39687499 0 0 1 0.396875,0.39687 z" />
        <path
           id="circle797"
           style="fill:#808080;stroke-width:0.264583"
           transform="scale(-1,1)"
           d="m -111.72584,126.96545 a 0.39687499,0.39687499 0 0 1 -0.39687,0.39687 0.39687499,0.39687499 0 0 1 -0.39688,-0.39687 0.39687499,0.39687499 0 0 1 0.39688,-0.39688 0.39687499,0.39687499 0 0 1 0.39687,0.39688 z" />
        <path
           id="circle799"
           style="fill:#808080;stroke-width:0.264583"
           transform="scale(-1,1)"
           d="m -110.36739,129.53745 a 0.39687499,0.39687499 0 0 1 -0.39688,0.39687 0.39687499,0.39687499 0 0 1 -0.39687,-0.39687 0.39687499,0.39687499 0 0 1 0.39687,-0.39688 0.39687499,0.39687499 0 0 1 0.39688,0.39688 z" />
        <path
           id="circle801"
           style="fill:#808080;stroke-width:0.264583"
           transform="scale(-1,1)"
           d="m -105.35721,123.46482 a 0.39687499,0.39687499 0 0 1 -0.39687,0.39688 0.39687499,0.39687499 0 0 1 -0.39688,-0.39688 0.39687499,0.39687499 0 0 1 0.39688,-0.39687 0.39687499,0.39687499 0 0 1 0.39687,0.39687 z" />
        <path
           id="circle803"
           style="fill:#808080;stroke-width:0.264583"
           transform="scale(-1,1)"
           d="m -101.95196,118.38043 a 0.39687499,0.39687499 0 0 1 -0.39688,0.39688 0.39687499,0.39687499 0 0 1 -0.39687,-0.39688 0.39687499,0.39687499 0 0 1 0.39687,-0.39687 0.39687499,0.39687499 0 0 1 0.39688,0.39687 z" />
        <path
           id="circle805"
           style="fill:#808080;stroke-width:0.264583"
           transform="scale(-1,1)"
           d="m -103.11835,120.68152 a 0.39687499,0.39687499 0 0 1 -0.39688,0.39687 0.39687499,0.39687499 0 0 1 -0.39687,-0.39687 0.39687499,0.39687499 0 0 1 0.39687,-0.39688 0.39687499,0.39687499 0 0 1 0.39688,0.39688 z" />
        <path
           id="circle807"
           style="fill:#808080;stroke-width:0.264583"
           transform="scale(-1,1)"
           d="m -107.02377,131.22908 a 0.39687499,0.39687499 0 0 1 -0.39688,0.39688 0.39687499,0.39687499 0 0 1 -0.39687,-0.39688 0.39687499,0.39687499 0 0 1 0.39687,-0.39687 0.39687499,0.39687499 0 0 1 0.39688,0.39687 z" />
        <path
           id="circle809"
           style="fill:#808080;stroke-width:0.264583"
           transform="scale(-1,1)"
           d="m -102.62114,119.05184 a 0.39687499,0.39687499 0 0 1 -0.39687,0.39688 0.39687499,0.39687499 0 0 1 -0.39688,-0.39688 0.39687499,0.39687499 0 0 1 0.39688,-0.39687 0.39687499,0.39687499 0 0 1 0.39687,0.39687 z" />
        <path
           id="circle811"
           style="fill:#808080;stroke-width:0.264583"
           transform="scale(-1,1)"
           d="m -105.49222,122.91219 a 0.39687499,0.39687499 0 0 1 -0.39688,0.39688 0.39687499,0.39687499 0 0 1 -0.39687,-0.39688 0.39687499,0.39687499 0 0 1 0.39687,-0.39687 0.39687499,0.39687499 0 0 1 0.39688,0.39687 z" />
        <path
           id="circle813"
           style="fill:#808080;stroke-width:0.264583"
           transform="scale(-1,1)"
           d="m -103.19301,120.40073 a 0.39687499,0.39687499 0 0 1 -0.39688,0.39687 0.39687499,0.39687499 0 0 1 -0.39687,-0.39687 0.39687499,0.39687499 0 0 1 0.39687,-0.39688 0.39687499,0.39687499 0 0 1 0.39688,0.39688 z" />
        <path
           id="circle815"
           style="fill:#808080;stroke-width:0.264583"
           transform="scale(-1,1)"
           d="m -102.97583,127.30817 a 0.39687499,0.39687499 0 0 1 -0.39687,0.39687 0.39687499,0.39687499 0 0 1 -0.39688,-0.39687 0.39687499,0.39687499 0 0 1 0.39688,-0.39688 0.39687499,0.39687499 0 0 1 0.39687,0.39688 z" />
        <path
           id="circle817"
           style="fill:#808080;stroke-width:0.264583"
           transform="scale(-1,1)"
           d="m -102.48469,122.9698 a 0.39687499,0.39687499 0 0 1 -0.39688,0.39688 0.39687499,0.39687499 0 0 1 -0.39687,-0.39688 0.39687499,0.39687499 0 0 1 0.39687,-0.39687 0.39687499,0.39687499 0 0 1 0.39688,0.39687 z" />
        <path
           id="circle819"
           style="fill:#808080;stroke-width:0.264583"
           transform="scale(-1,1)"
           d="m -106.58738,121.53329 a 0.39687499,0.39687499 0 0 1 -0.39687,0.39687 0.39687499,0.39687499 0 0 1 -0.39688,-0.39687 0.39687499,0.39687499 0 0 1 0.39688,-0.39688 0.39687499,0.39687499 0 0 1 0.39687,0.39688 z" />
        <path
           id="circle821"
           style="fill:#808080;stroke-width:0.264583"
           transform="scale(-1,1)"
           d="m -98.285826,120.53626 a 0.39687499,0.39687499 0 0 1 -0.396875,0.39688 0.39687499,0.39687499 0 0 1 -0.396875,-0.39688 0.39687499,0.39687499 0 0 1 0.396875,-0.39687 0.39687499,0.39687499 0 0 1 0.396875,0.39687 z" />
        <path
           id="circle823"
           style="fill:#808080;stroke-width:0.264583"
           transform="scale(-1,1)"
           d="m -104.54744,121.67417 a 0.39687499,0.39687499 0 0 1 -0.39687,0.39688 0.39687499,0.39687499 0 0 1 -0.39688,-0.39688 0.39687499,0.39687499 0 0 1 0.39688,-0.39687 0.39687499,0.39687499 0 0 1 0.39687,0.39687 z" />
        <path
           id="circle825"
           style="fill:#808080;stroke-width:0.264583"
           transform="scale(-1,1)"
           d="m -115.20521,128.38506 a 0.39687499,0.39687499 0 0 1 -0.39687,0.39687 0.39687499,0.39687499 0 0 1 -0.39688,-0.39687 0.39687499,0.39687499 0 0 1 0.39688,-0.39688 0.39687499,0.39687499 0 0 1 0.39687,0.39688 z" />
        <path
           id="circle827"
           style="fill:#808080;stroke-width:0.264583"
           transform="scale(-1,1)"
           d="m -108.76861,132.01321 a 0.39687499,0.39687499 0 0 1 -0.39687,0.39688 0.39687499,0.39687499 0 0 1 -0.39688,-0.39688 0.39687499,0.39687499 0 0 1 0.39688,-0.39687 0.39687499,0.39687499 0 0 1 0.39687,0.39687 z" />
        <path
           id="circle829"
           style="fill:#808080;stroke-width:0.264583"
           transform="scale(-1,1)"
           d="m -103.17718,120.66398 a 0.39687499,0.39687499 0 0 1 -0.39687,0.39687 0.39687499,0.39687499 0 0 1 -0.39688,-0.39687 0.39687499,0.39687499 0 0 1 0.39688,-0.39688 0.39687499,0.39687499 0 0 1 0.39687,0.39688 z" />
        <path
           id="circle831"
           style="fill:#808080;stroke-width:0.264583"
           transform="scale(-1,1)"
           d="m -102.52412,120.35492 a 0.39687499,0.39687499 0 0 1 -0.39688,0.39687 0.39687499,0.39687499 0 0 1 -0.39687,-0.39687 0.39687499,0.39687499 0 0 1 0.39687,-0.39688 0.39687499,0.39687499 0 0 1 0.39688,0.39688 z" />
        <path
           id="circle833"
           style="fill:#808080;stroke-width:0.264583"
           transform="scale(-1,1)"
           d="m -100.58446,127.65453 a 0.39687499,0.39687499 0 0 1 -0.39687,0.39688 0.39687499,0.39687499 0 0 1 -0.39688,-0.39688 0.39687499,0.39687499 0 0 1 0.39688,-0.39687 0.39687499,0.39687499 0 0 1 0.39687,0.39687 z" />
        <path
           id="circle835"
           style="fill:#808080;stroke-width:0.264583"
           transform="scale(-1,1)"
           d="m -101.93504,118.13059 a 0.39687499,0.39687499 0 0 1 -0.39688,0.39688 0.39687499,0.39687499 0 0 1 -0.39687,-0.39688 0.39687499,0.39687499 0 0 1 0.39687,-0.39687 0.39687499,0.39687499 0 0 1 0.39688,0.39687 z" />
        <path
           id="circle837"
           style="fill:#808080;stroke-width:0.264583"
           transform="scale(-1,1)"
           d="m -101.17664,123.12528 a 0.39687499,0.39687499 0 0 1 -0.39688,0.39688 0.39687499,0.39687499 0 0 1 -0.39687,-0.39688 0.39687499,0.39687499 0 0 1 0.39687,-0.39687 0.39687499,0.39687499 0 0 1 0.39688,0.39687 z" />
        <path
           id="circle839"
           style="fill:#808080;stroke-width:0.264583"
           transform="scale(-1,1)"
           d="m -102.41998,129.01099 a 0.39687499,0.39687499 0 0 1 -0.39688,0.39687 0.39687499,0.39687499 0 0 1 -0.39687,-0.39687 0.39687499,0.39687499 0 0 1 0.39687,-0.39688 0.39687499,0.39687499 0 0 1 0.39688,0.39688 z" />
        <path
           id="circle841"
           style="fill:#808080;stroke-width:0.264583"
           transform="scale(-1,1)"
           d="m -105.08253,120.7685 a 0.39687499,0.39687499 0 0 1 -0.39687,0.39688 0.39687499,0.39687499 0 0 1 -0.39688,-0.39688 0.39687499,0.39687499 0 0 1 0.39688,-0.39687 0.39687499,0.39687499 0 0 1 0.39687,0.39687 z" />
        <path
           id="circle843"
           style="fill:#808080;stroke-width:0.264583"
           transform="scale(-1,1)"
           d="m -105.22439,133.04976 a 0.39687499,0.39687499 0 0 1 -0.39688,0.39687 0.39687499,0.39687499 0 0 1 -0.39687,-0.39687 0.39687499,0.39687499 0 0 1 0.39687,-0.39688 0.39687499,0.39687499 0 0 1 0.39688,0.39688 z" />
        <path
           id="circle845"
           style="fill:#808080;stroke-width:0.264583"
           transform="scale(-1,1)"
           d="m -106.06763,123.14658 a 0.39687499,0.39687499 0 0 1 -0.39687,0.39688 0.39687499,0.39687499 0 0 1 -0.39688,-0.39688 0.39687499,0.39687499 0 0 1 0.39688,-0.39687 0.39687499,0.39687499 0 0 1 0.39687,0.39687 z" />
        <path
           id="circle847"
           style="fill:#808080;stroke-width:0.264583"
           transform="scale(-1,1)"
           d="m -101.95663,119.5637 a 0.39687499,0.39687499 0 0 1 -0.39687,0.39687 0.39687499,0.39687499 0 0 1 -0.39688,-0.39687 0.39687499,0.39687499 0 0 1 0.39688,-0.39688 0.39687499,0.39687499 0 0 1 0.39687,0.39688 z" />
        <path
           id="circle849"
           style="fill:#808080;stroke-width:0.264583"
           transform="scale(-1,1)"
           d="m -114.28802,119.98289 a 0.39687499,0.39687499 0 0 1 -0.39688,0.39687 0.39687499,0.39687499 0 0 1 -0.39687,-0.39687 0.39687499,0.39687499 0 0 1 0.39687,-0.39688 0.39687499,0.39687499 0 0 1 0.39688,0.39688 z" />
        <path
           id="circle851"
           style="fill:#808080;stroke-width:0.264583"
           transform="scale(-1,1)"
           d="m -110.6093,120.66097 a 0.39687499,0.39687499 0 0 1 -0.39687,0.39688 0.39687499,0.39687499 0 0 1 -0.39688,-0.39688 0.39687499,0.39687499 0 0 1 0.39688,-0.39687 0.39687499,0.39687499 0 0 1 0.39687,0.39687 z" />
        <path
           id="circle853"
           style="fill:#808080;stroke-width:0.264583"
           transform="scale(-1,1)"
           d="m -101.91776,125.23943 a 0.39687499,0.39687499 0 0 1 -0.39688,0.39688 0.39687499,0.39687499 0 0 1 -0.39687,-0.39688 0.39687499,0.39687499 0 0 1 0.39687,-0.39687 0.39687499,0.39687499 0 0 1 0.39688,0.39687 z" />
        <path
           id="circle855"
           style="fill:#808080;stroke-width:0.264583"
           transform="scale(-1,1)"
           d="m -102.58719,122.82536 a 0.39687499,0.39687499 0 0 1 -0.39688,0.39688 0.39687499,0.39687499 0 0 1 -0.39687,-0.39688 0.39687499,0.39687499 0 0 1 0.39687,-0.39687 0.39687499,0.39687499 0 0 1 0.39688,0.39687 z" />
        <path
           id="circle857"
           style="fill:#808080;stroke-width:0.264583"
           transform="scale(-1,1)"
           d="m -101.09853,128.95448 a 0.39687499,0.39687499 0 0 1 -0.39688,0.39688 0.39687499,0.39687499 0 0 1 -0.39687,-0.39688 0.39687499,0.39687499 0 0 1 0.39687,-0.39687 0.39687499,0.39687499 0 0 1 0.39688,0.39687 z" />
        <path
           id="circle859"
           style="fill:#808080;stroke-width:0.264583"
           transform="scale(-1,1)"
           d="m -104.29504,128.38173 a 0.39687499,0.39687499 0 0 1 -0.39688,0.39687 0.39687499,0.39687499 0 0 1 -0.39687,-0.39687 0.39687499,0.39687499 0 0 1 0.39687,-0.39688 0.39687499,0.39687499 0 0 1 0.39688,0.39688 z" />
        <path
           id="circle861"
           style="fill:#808080;stroke-width:0.264583"
           transform="scale(-1,1)"
           d="m -104.79256,130.36568 a 0.39687499,0.39687499 0 0 1 -0.39687,0.39687 0.39687499,0.39687499 0 0 1 -0.39688,-0.39687 0.39687499,0.39687499 0 0 1 0.39688,-0.39688 0.39687499,0.39687499 0 0 1 0.39687,0.39688 z" />
        <path
           id="circle863"
           style="fill:#808080;stroke-width:0.264583"
           transform="scale(-1,1)"
           d="m -109.4547,125.46833 a 0.39687499,0.39687499 0 0 1 -0.39688,0.39688 0.39687499,0.39687499 0 0 1 -0.39687,-0.39688 0.39687499,0.39687499 0 0 1 0.39687,-0.39687 0.39687499,0.39687499 0 0 1 0.39688,0.39687 z" />
        <path
           id="circle865"
           style="fill:#808080;stroke-width:0.264583"
           transform="scale(-1,1)"
           d="m -112.55058,129.23273 a 0.39687499,0.39687499 0 0 1 -0.39688,0.39687 0.39687499,0.39687499 0 0 1 -0.39687,-0.39687 0.39687499,0.39687499 0 0 1 0.39687,-0.39688 0.39687499,0.39687499 0 0 1 0.39688,0.39688 z" />
        <path
           id="circle867"
           style="fill:#808080;stroke-width:0.264583"
           transform="scale(-1,1)"
           d="m -102.6478,130.93742 a 0.39687499,0.39687499 0 0 1 -0.39687,0.39688 0.39687499,0.39687499 0 0 1 -0.39688,-0.39688 0.39687499,0.39687499 0 0 1 0.39688,-0.39687 0.39687499,0.39687499 0 0 1 0.39687,0.39687 z" />
        <path
           id="circle869"
           style="fill:#808080;stroke-width:0.264583"
           transform="scale(-1,1)"
           d="m -101.59324,122.0451 a 0.39687499,0.39687499 0 0 1 -0.39688,0.39687 0.39687499,0.39687499 0 0 1 -0.39687,-0.39687 0.39687499,0.39687499 0 0 1 0.39687,-0.39688 0.39687499,0.39687499 0 0 1 0.39688,0.39688 z" />
        <path
           id="circle871"
           style="fill:#808080;stroke-width:0.264583"
           transform="scale(-1,1)"
           d="m -111.63386,125.86627 a 0.39687499,0.39687499 0 0 1 -0.39687,0.39688 0.39687499,0.39687499 0 0 1 -0.39688,-0.39688 0.39687499,0.39687499 0 0 1 0.39688,-0.39687 0.39687499,0.39687499 0 0 1 0.39687,0.39687 z" />
        <path
           id="circle873"
           style="fill:#808080;stroke-width:0.264583"
           transform="scale(-1,1)"
           d="m -109.01958,122.95183 a 0.39687499,0.39687499 0 0 1 -0.39688,0.39687 0.39687499,0.39687499 0 0 1 -0.39687,-0.39687 0.39687499,0.39687499 0 0 1 0.39687,-0.39688 0.39687499,0.39687499 0 0 1 0.39688,0.39688 z" />
        <path
           id="circle875"
           style="fill:#808080;stroke-width:0.264583"
           transform="scale(-1,1)"
           d="m -113.32262,123.85639 a 0.39687499,0.39687499 0 0 1 -0.39687,0.39688 0.39687499,0.39687499 0 0 1 -0.39688,-0.39688 0.39687499,0.39687499 0 0 1 0.39688,-0.39687 0.39687499,0.39687499 0 0 1 0.39687,0.39687 z" />
        <path
           id="circle877"
           style="fill:#808080;stroke-width:0.264583"
           transform="scale(-1,1)"
           d="m -105.91772,129.59047 a 0.39687499,0.39687499 0 0 1 -0.39687,0.39687 0.39687499,0.39687499 0 0 1 -0.39688,-0.39687 0.39687499,0.39687499 0 0 1 0.39688,-0.39688 0.39687499,0.39687499 0 0 1 0.39687,0.39688 z" />
        <path
           id="circle879"
           style="fill:#808080;stroke-width:0.264583"
           transform="scale(-1,1)"
           d="m -109.72525,123.60236 a 0.39687499,0.39687499 0 0 1 -0.39687,0.39688 0.39687499,0.39687499 0 0 1 -0.39688,-0.39688 0.39687499,0.39687499 0 0 1 0.39688,-0.39687 0.39687499,0.39687499 0 0 1 0.39687,0.39687 z" />
        <path
           id="circle881"
           style="fill:#808080;stroke-width:0.264583"
           transform="scale(-1,1)"
           d="m -112.65217,122.64287 a 0.39687499,0.39687499 0 0 1 -0.39687,0.39687 0.39687499,0.39687499 0 0 1 -0.39688,-0.39687 0.39687499,0.39687499 0 0 1 0.39688,-0.39688 0.39687499,0.39687499 0 0 1 0.39687,0.39688 z" />
        <path
           id="circle883"
           style="fill:#808080;stroke-width:0.264583"
           transform="scale(-1,1)"
           d="m -106.30296,128.24316 a 0.39687499,0.39687499 0 0 1 -0.39688,0.39688 0.39687499,0.39687499 0 0 1 -0.39687,-0.39688 0.39687499,0.39687499 0 0 1 0.39687,-0.39687 0.39687499,0.39687499 0 0 1 0.39688,0.39687 z" />
        <path
           id="circle885"
           style="fill:#808080;stroke-width:0.264583"
           transform="scale(-1,1)"
           d="m -103.40775,124.10486 a 0.39687499,0.39687499 0 0 1 -0.39688,0.39687 0.39687499,0.39687499 0 0 1 -0.39687,-0.39687 0.39687499,0.39687499 0 0 1 0.39687,-0.39688 0.39687499,0.39687499 0 0 1 0.39688,0.39688 z" />
        <path
           id="circle887"
           style="fill:#808080;stroke-width:0.264583"
           transform="scale(-1,1)"
           d="m -105.15874,140.67511 a 0.39687499,0.39687499 0 0 1 -0.39687,0.39687 0.39687499,0.39687499 0 0 1 -0.39688,-0.39687 0.39687499,0.39687499 0 0 1 0.39688,-0.39688 0.39687499,0.39687499 0 0 1 0.39687,0.39688 z" />
        <path
           id="circle889"
           style="fill:#808080;stroke-width:0.264583"
           transform="scale(-1,1)"
           d="m -113.32174,129.75645 a 0.39687499,0.39687499 0 0 1 -0.39687,0.39688 0.39687499,0.39687499 0 0 1 -0.39688,-0.39688 0.39687499,0.39687499 0 0 1 0.39688,-0.39687 0.39687499,0.39687499 0 0 1 0.39687,0.39687 z" />
        <path
           id="circle891"
           style="fill:#808080;stroke-width:0.264583"
           transform="scale(-1,1)"
           d="m -99.849638,120.2931 a 0.39687499,0.39687499 0 0 1 -0.396872,0.39687 0.39687499,0.39687499 0 0 1 -0.39688,-0.39687 0.39687499,0.39687499 0 0 1 0.39688,-0.39688 0.39687499,0.39687499 0 0 1 0.396872,0.39688 z" />
        <path
           id="circle893"
           style="fill:#808080;stroke-width:0.264583"
           transform="scale(-1,1)"
           d="m -104.72332,124.53489 a 0.39687499,0.39687499 0 0 1 -0.39687,0.39687 0.39687499,0.39687499 0 0 1 -0.39688,-0.39687 0.39687499,0.39687499 0 0 1 0.39688,-0.39688 0.39687499,0.39687499 0 0 1 0.39687,0.39688 z" />
        <path
           id="circle895"
           style="fill:#808080;stroke-width:0.264583"
           transform="scale(-1,1)"
           d="m -105.55945,120.25714 a 0.39687499,0.39687499 0 0 1 -0.39687,0.39688 0.39687499,0.39687499 0 0 1 -0.39688,-0.39688 0.39687499,0.39687499 0 0 1 0.39688,-0.39687 0.39687499,0.39687499 0 0 1 0.39687,0.39687 z" />
        <path
           id="circle897"
           style="fill:#808080;stroke-width:0.264583"
           transform="scale(-1,1)"
           d="m -110.89809,125.96392 a 0.39687499,0.39687499 0 0 1 -0.39688,0.39688 0.39687499,0.39687499 0 0 1 -0.39687,-0.39688 0.39687499,0.39687499 0 0 1 0.39687,-0.39687 0.39687499,0.39687499 0 0 1 0.39688,0.39687 z" />
        <path
           id="circle899"
           style="fill:#808080;stroke-width:0.264583"
           transform="scale(-1,1)"
           d="m -107.96603,132.08704 a 0.39687499,0.39687499 0 0 1 -0.39688,0.39687 0.39687499,0.39687499 0 0 1 -0.39687,-0.39687 0.39687499,0.39687499 0 0 1 0.39687,-0.39688 0.39687499,0.39687499 0 0 1 0.39688,0.39688 z" />
        <path
           id="circle901"
           style="fill:#808080;stroke-width:0.264583"
           transform="scale(-1,1)"
           d="m -104.93799,130.86035 a 0.39687499,0.39687499 0 0 1 -0.39688,0.39688 0.39687499,0.39687499 0 0 1 -0.39687,-0.39688 0.39687499,0.39687499 0 0 1 0.39687,-0.39687 0.39687499,0.39687499 0 0 1 0.39688,0.39687 z" />
        <path
           id="circle903"
           style="fill:#808080;stroke-width:0.264583"
           transform="scale(-1,1)"
           d="m -100.53071,120.723 a 0.39687499,0.39687499 0 0 1 -0.39687,0.39687 0.39687499,0.39687499 0 0 1 -0.39688,-0.39687 0.39687499,0.39687499 0 0 1 0.39688,-0.39688 0.39687499,0.39687499 0 0 1 0.39687,0.39688 z" />
        <path
           id="circle905"
           style="fill:#808080;stroke-width:0.264583"
           transform="scale(-1,1)"
           d="m -107.53048,122.23722 a 0.39687499,0.39687499 0 0 1 -0.39687,0.39688 0.39687499,0.39687499 0 0 1 -0.39688,-0.39688 0.39687499,0.39687499 0 0 1 0.39688,-0.39687 0.39687499,0.39687499 0 0 1 0.39687,0.39687 z" />
        <path
           id="circle907"
           style="fill:#808080;stroke-width:0.264583"
           transform="scale(-1,1)"
           d="m -103.98127,120.76201 a 0.39687499,0.39687499 0 0 1 -0.39687,0.39687 0.39687499,0.39687499 0 0 1 -0.39688,-0.39687 0.39687499,0.39687499 0 0 1 0.39688,-0.39688 0.39687499,0.39687499 0 0 1 0.39687,0.39688 z" />
        <path
           id="circle909"
           style="fill:#808080;stroke-width:0.264583"
           transform="scale(-1,1)"
           d="m -111.63714,124.62752 a 0.39687499,0.39687499 0 0 1 -0.39687,0.39687 0.39687499,0.39687499 0 0 1 -0.39688,-0.39687 0.39687499,0.39687499 0 0 1 0.39688,-0.39688 0.39687499,0.39687499 0 0 1 0.39687,0.39688 z" />
        <path
           id="circle911"
           style="fill:#808080;stroke-width:0.264583"
           transform="scale(-1,1)"
           d="m -103.1068,118.38311 a 0.39687499,0.39687499 0 0 1 -0.39688,0.39688 0.39687499,0.39687499 0 0 1 -0.39687,-0.39688 0.39687499,0.39687499 0 0 1 0.39687,-0.39687 0.39687499,0.39687499 0 0 1 0.39688,0.39687 z" />
        <path
           id="circle913"
           style="fill:#808080;stroke-width:0.264583"
           transform="scale(-1,1)"
           d="m -105.94025,124.12255 a 0.39687499,0.39687499 0 0 1 -0.39688,0.39688 0.39687499,0.39687499 0 0 1 -0.39687,-0.39688 0.39687499,0.39687499 0 0 1 0.39687,-0.39687 0.39687499,0.39687499 0 0 1 0.39688,0.39687 z" />
        <path
           id="circle915"
           style="fill:#808080;stroke-width:0.264583"
           transform="scale(-1,1)"
           d="m -108.00517,131.19461 a 0.39687499,0.39687499 0 0 1 -0.39688,0.39688 0.39687499,0.39687499 0 0 1 -0.39687,-0.39688 0.39687499,0.39687499 0 0 1 0.39687,-0.39687 0.39687499,0.39687499 0 0 1 0.39688,0.39687 z" />
        <path
           id="circle917"
           style="fill:#808080;stroke-width:0.264583"
           transform="scale(-1,1)"
           d="m -116.87594,128.28152 a 0.39687499,0.39687499 0 0 1 -0.39688,0.39688 0.39687499,0.39687499 0 0 1 -0.39687,-0.39688 0.39687499,0.39687499 0 0 1 0.39687,-0.39687 0.39687499,0.39687499 0 0 1 0.39688,0.39687 z" />
        <path
           id="circle919"
           style="fill:#808080;stroke-width:0.264583"
           transform="scale(-1,1)"
           d="m -103.75883,119.06493 a 0.39687499,0.39687499 0 0 1 -0.39687,0.39688 0.39687499,0.39687499 0 0 1 -0.39688,-0.39688 0.39687499,0.39687499 0 0 1 0.39688,-0.39687 0.39687499,0.39687499 0 0 1 0.39687,0.39687 z" />
        <path
           id="circle921"
           style="fill:#808080;stroke-width:0.264583"
           transform="scale(-1,1)"
           d="m -103.54971,122.00051 a 0.39687499,0.39687499 0 0 1 -0.39688,0.39688 0.39687499,0.39687499 0 0 1 -0.39687,-0.39688 0.39687499,0.39687499 0 0 1 0.39687,-0.39687 0.39687499,0.39687499 0 0 1 0.39688,0.39687 z" />
        <path
           id="circle923"
           style="fill:#808080;stroke-width:0.264583"
           transform="scale(-1,1)"
           d="m -107.91185,129.03656 a 0.39687499,0.39687499 0 0 1 -0.39687,0.39688 0.39687499,0.39687499 0 0 1 -0.39688,-0.39688 0.39687499,0.39687499 0 0 1 0.39688,-0.39687 0.39687499,0.39687499 0 0 1 0.39687,0.39687 z" />
        <path
           id="circle925"
           style="fill:#808080;stroke-width:0.264583"
           transform="scale(-1,1)"
           d="m -104.86404,117.35641 a 0.39687499,0.39687499 0 0 1 -0.39688,0.39687 0.39687499,0.39687499 0 0 1 -0.39687,-0.39687 0.39687499,0.39687499 0 0 1 0.39687,-0.39688 0.39687499,0.39687499 0 0 1 0.39688,0.39688 z" />
        <path
           id="circle927"
           style="fill:#808080;stroke-width:0.264583"
           transform="scale(-1,1)"
           d="m -102.53772,123.01613 a 0.39687499,0.39687499 0 0 1 -0.39687,0.39687 0.39687499,0.39687499 0 0 1 -0.39688,-0.39687 0.39687499,0.39687499 0 0 1 0.39688,-0.39688 0.39687499,0.39687499 0 0 1 0.39687,0.39688 z" />
        <path
           id="circle929"
           style="fill:#808080;stroke-width:0.264583"
           transform="scale(-1,1)"
           d="m -101.86468,122.92915 a 0.39687499,0.39687499 0 0 1 -0.39688,0.39688 0.39687499,0.39687499 0 0 1 -0.39687,-0.39688 0.39687499,0.39687499 0 0 1 0.39687,-0.39687 0.39687499,0.39687499 0 0 1 0.39688,0.39687 z" />
        <path
           id="circle931"
           style="fill:#808080;stroke-width:0.264583"
           transform="scale(-1,1)"
           d="m -104.93046,127.03035 a 0.39687499,0.39687499 0 0 1 -0.39688,0.39687 0.39687499,0.39687499 0 0 1 -0.39687,-0.39687 0.39687499,0.39687499 0 0 1 0.39687,-0.39688 0.39687499,0.39687499 0 0 1 0.39688,0.39688 z" />
        <path
           id="circle933"
           style="fill:#808080;stroke-width:0.264583"
           transform="scale(-1,1)"
           d="m -105.66907,136.99672 a 0.39687499,0.39687499 0 0 1 -0.39687,0.39687 0.39687499,0.39687499 0 0 1 -0.39688,-0.39687 0.39687499,0.39687499 0 0 1 0.39688,-0.39688 0.39687499,0.39687499 0 0 1 0.39687,0.39688 z" />
        <path
           id="circle935"
           style="fill:#808080;stroke-width:0.264583"
           transform="scale(-1,1)"
           d="m -100.44975,121.27412 a 0.39687499,0.39687499 0 0 1 -0.39688,0.39687 0.39687499,0.39687499 0 0 1 -0.39687,-0.39687 0.39687499,0.39687499 0 0 1 0.39687,-0.39688 0.39687499,0.39687499 0 0 1 0.39688,0.39688 z" />
        <path
           id="circle937"
           style="fill:#808080;stroke-width:0.264583"
           transform="scale(-1,1)"
           d="m -109.57805,121.62311 a 0.39687499,0.39687499 0 0 1 -0.39688,0.39687 0.39687499,0.39687499 0 0 1 -0.39687,-0.39687 0.39687499,0.39687499 0 0 1 0.39687,-0.39688 0.39687499,0.39687499 0 0 1 0.39688,0.39688 z" />
        <path
           id="circle939"
           style="fill:#808080;stroke-width:0.264583"
           transform="scale(-1,1)"
           d="m -106.66927,122.54519 a 0.39687499,0.39687499 0 0 1 -0.39688,0.39687 0.39687499,0.39687499 0 0 1 -0.39687,-0.39687 0.39687499,0.39687499 0 0 1 0.39687,-0.39688 0.39687499,0.39687499 0 0 1 0.39688,0.39688 z" />
        <path
           id="circle941"
           style="fill:#808080;stroke-width:0.264583"
           transform="scale(-1,1)"
           d="m -105.11514,125.31777 a 0.39687499,0.39687499 0 0 1 -0.39688,0.39688 0.39687499,0.39687499 0 0 1 -0.39687,-0.39688 0.39687499,0.39687499 0 0 1 0.39687,-0.39687 0.39687499,0.39687499 0 0 1 0.39688,0.39687 z" />
        <path
           id="circle943"
           style="fill:#808080;stroke-width:0.264583"
           transform="scale(-1,1)"
           d="m -112.17516,129.73045 a 0.39687499,0.39687499 0 0 1 -0.39688,0.39688 0.39687499,0.39687499 0 0 1 -0.39687,-0.39688 0.39687499,0.39687499 0 0 1 0.39687,-0.39687 0.39687499,0.39687499 0 0 1 0.39688,0.39687 z" />
        <path
           id="circle945"
           style="fill:#808080;stroke-width:0.264583"
           transform="scale(-1,1)"
           d="m -98.732375,120.91869 a 0.39687499,0.39687499 0 0 1 -0.396875,0.39688 0.39687499,0.39687499 0 0 1 -0.396875,-0.39688 0.39687499,0.39687499 0 0 1 0.396875,-0.39687 0.39687499,0.39687499 0 0 1 0.396875,0.39687 z" />
        <path
           id="circle947"
           style="fill:#808080;stroke-width:0.264583"
           transform="scale(-1,1)"
           d="m -107.67647,122.14466 a 0.39687499,0.39687499 0 0 1 -0.39688,0.39688 0.39687499,0.39687499 0 0 1 -0.39687,-0.39688 0.39687499,0.39687499 0 0 1 0.39687,-0.39687 0.39687499,0.39687499 0 0 1 0.39688,0.39687 z" />
        <path
           id="circle949"
           style="fill:#808080;stroke-width:0.264583"
           transform="scale(-1,1)"
           d="m -101.74782,123.02956 a 0.39687499,0.39687499 0 0 1 -0.39687,0.39687 0.39687499,0.39687499 0 0 1 -0.39688,-0.39687 0.39687499,0.39687499 0 0 1 0.39688,-0.39688 0.39687499,0.39687499 0 0 1 0.39687,0.39688 z" />
        <path
           id="circle951"
           style="fill:#808080;stroke-width:0.264583"
           transform="scale(-1,1)"
           d="m -103.4352,129.41263 a 0.39687499,0.39687499 0 0 1 -0.39688,0.39687 0.39687499,0.39687499 0 0 1 -0.39687,-0.39687 0.39687499,0.39687499 0 0 1 0.39687,-0.39688 0.39687499,0.39687499 0 0 1 0.39688,0.39688 z" />
        <path
           id="circle953"
           style="fill:#808080;stroke-width:0.264583"
           transform="scale(-1,1)"
           d="m -102.22838,119.87621 a 0.39687499,0.39687499 0 0 1 -0.39687,0.39688 0.39687499,0.39687499 0 0 1 -0.39688,-0.39688 0.39687499,0.39687499 0 0 1 0.39688,-0.39687 0.39687499,0.39687499 0 0 1 0.39687,0.39687 z" />
        <path
           id="circle955"
           style="fill:#808080;stroke-width:0.264583"
           transform="scale(-1,1)"
           d="m -108.05794,121.76985 a 0.39687499,0.39687499 0 0 1 -0.39687,0.39688 0.39687499,0.39687499 0 0 1 -0.39688,-0.39688 0.39687499,0.39687499 0 0 1 0.39688,-0.39687 0.39687499,0.39687499 0 0 1 0.39687,0.39687 z" />
        <path
           id="circle957"
           style="fill:#808080;stroke-width:0.264583"
           transform="scale(-1,1)"
           d="m -106.30459,124.52865 a 0.39687499,0.39687499 0 0 1 -0.39688,0.39687 0.39687499,0.39687499 0 0 1 -0.39687,-0.39687 0.39687499,0.39687499 0 0 1 0.39687,-0.39688 0.39687499,0.39687499 0 0 1 0.39688,0.39688 z" />
        <path
           id="circle959"
           style="fill:#808080;stroke-width:0.264583"
           transform="scale(-1,1)"
           d="m -109.45695,132.44083 a 0.39687499,0.39687499 0 0 1 -0.39688,0.39687 0.39687499,0.39687499 0 0 1 -0.39687,-0.39687 0.39687499,0.39687499 0 0 1 0.39687,-0.39688 0.39687499,0.39687499 0 0 1 0.39688,0.39688 z" />
        <path
           id="circle961"
           style="fill:#808080;stroke-width:0.264583"
           transform="scale(-1,1)"
           d="m -113.60836,130.08044 a 0.39687499,0.39687499 0 0 1 -0.39687,0.39688 0.39687499,0.39687499 0 0 1 -0.39688,-0.39688 0.39687499,0.39687499 0 0 1 0.39688,-0.39687 0.39687499,0.39687499 0 0 1 0.39687,0.39687 z" />
        <path
           id="circle963"
           style="fill:#808080;stroke-width:0.264583"
           transform="scale(-1,1)"
           d="m -114.62549,129.73386 a 0.39687499,0.39687499 0 0 1 -0.39687,0.39687 0.39687499,0.39687499 0 0 1 -0.39688,-0.39687 0.39687499,0.39687499 0 0 1 0.39688,-0.39688 0.39687499,0.39687499 0 0 1 0.39687,0.39688 z" />
        <path
           id="circle965"
           style="fill:#808080;stroke-width:0.264583"
           transform="scale(-1,1)"
           d="m -104.88598,122.27492 a 0.39687499,0.39687499 0 0 1 -0.39688,0.39687 0.39687499,0.39687499 0 0 1 -0.39687,-0.39687 0.39687499,0.39687499 0 0 1 0.39687,-0.39688 0.39687499,0.39687499 0 0 1 0.39688,0.39688 z" />
        <path
           id="circle967"
           style="fill:#808080;stroke-width:0.264583"
           transform="scale(-1,1)"
           d="m -102.01326,120.02376 a 0.39687499,0.39687499 0 0 1 -0.39687,0.39687 0.39687499,0.39687499 0 0 1 -0.39688,-0.39687 0.39687499,0.39687499 0 0 1 0.39688,-0.39688 0.39687499,0.39687499 0 0 1 0.39687,0.39688 z" />
        <path
           id="circle969"
           style="fill:#808080;stroke-width:0.264583"
           transform="scale(-1,1)"
           d="m -100.22445,122.12645 a 0.39687499,0.39687499 0 0 1 -0.39687,0.39687 0.39687499,0.39687499 0 0 1 -0.39688,-0.39687 0.39687499,0.39687499 0 0 1 0.39688,-0.39688 0.39687499,0.39687499 0 0 1 0.39687,0.39688 z" />
        <path
           id="circle971"
           style="fill:#808080;stroke-width:0.264583"
           transform="scale(-1,1)"
           d="m -101.71628,121.54166 a 0.39687499,0.39687499 0 0 1 -0.39688,0.39687 0.39687499,0.39687499 0 0 1 -0.39687,-0.39687 0.39687499,0.39687499 0 0 1 0.39687,-0.39688 0.39687499,0.39687499 0 0 1 0.39688,0.39688 z" />
        <path
           id="circle973"
           style="fill:#808080;stroke-width:0.264583"
           transform="scale(-1,1)"
           d="m -108.70299,121.37462 a 0.39687499,0.39687499 0 0 1 -0.39688,0.39687 0.39687499,0.39687499 0 0 1 -0.39687,-0.39687 0.39687499,0.39687499 0 0 1 0.39687,-0.39688 0.39687499,0.39687499 0 0 1 0.39688,0.39688 z" />
        <path
           id="circle975"
           style="fill:#808080;stroke-width:0.264583"
           transform="scale(-1,1)"
           d="m -115.89468,131.88272 a 0.39687499,0.39687499 0 0 1 -0.39688,0.39688 0.39687499,0.39687499 0 0 1 -0.39687,-0.39688 0.39687499,0.39687499 0 0 1 0.39687,-0.39687 0.39687499,0.39687499 0 0 1 0.39688,0.39687 z" />
        <path
           id="circle977"
           style="fill:#808080;stroke-width:0.264583"
           transform="scale(-1,1)"
           d="m -100.56338,119.11133 a 0.39687499,0.39687499 0 0 1 -0.39688,0.39687 0.39687499,0.39687499 0 0 1 -0.39687,-0.39687 0.39687499,0.39687499 0 0 1 0.39687,-0.39688 0.39687499,0.39687499 0 0 1 0.39688,0.39688 z" />
        <path
           id="circle979"
           style="fill:#808080;stroke-width:0.264583"
           transform="scale(-1,1)"
           d="m -105.50696,125.43822 a 0.39687499,0.39687499 0 0 1 -0.39688,0.39687 0.39687499,0.39687499 0 0 1 -0.39687,-0.39687 0.39687499,0.39687499 0 0 1 0.39687,-0.39688 0.39687499,0.39687499 0 0 1 0.39688,0.39688 z" />
        <path
           id="circle981"
           style="fill:#808080;stroke-width:0.264583"
           transform="scale(-1,1)"
           d="m -112.10954,127.98124 a 0.39687499,0.39687499 0 0 1 -0.39688,0.39687 0.39687499,0.39687499 0 0 1 -0.39687,-0.39687 0.39687499,0.39687499 0 0 1 0.39687,-0.39688 0.39687499,0.39687499 0 0 1 0.39688,0.39688 z" />
        <path
           id="circle983"
           style="fill:#808080;stroke-width:0.264583"
           transform="scale(-1,1)"
           d="m -111.97516,128.56589 a 0.39687499,0.39687499 0 0 1 -0.39688,0.39687 0.39687499,0.39687499 0 0 1 -0.39687,-0.39687 0.39687499,0.39687499 0 0 1 0.39687,-0.39688 0.39687499,0.39687499 0 0 1 0.39688,0.39688 z" />
        <path
           id="circle985"
           style="fill:#808080;stroke-width:0.264583"
           transform="scale(-1,1)"
           d="m -106.45253,119.31764 a 0.39687499,0.39687499 0 0 1 -0.39687,0.39688 0.39687499,0.39687499 0 0 1 -0.39688,-0.39688 0.39687499,0.39687499 0 0 1 0.39688,-0.39687 0.39687499,0.39687499 0 0 1 0.39687,0.39687 z" />
        <path
           id="circle987"
           style="fill:#808080;stroke-width:0.264583"
           transform="scale(-1,1)"
           d="m -111.37665,127.70689 a 0.39687499,0.39687499 0 0 1 -0.39687,0.39687 0.39687499,0.39687499 0 0 1 -0.39688,-0.39687 0.39687499,0.39687499 0 0 1 0.39688,-0.39688 0.39687499,0.39687499 0 0 1 0.39687,0.39688 z" />
        <path
           id="circle989"
           style="fill:#808080;stroke-width:0.264583"
           transform="scale(-1,1)"
           d="m -111.23936,135.5392 a 0.39687499,0.39687499 0 0 1 -0.39688,0.39687 0.39687499,0.39687499 0 0 1 -0.39687,-0.39687 0.39687499,0.39687499 0 0 1 0.39687,-0.39688 0.39687499,0.39687499 0 0 1 0.39688,0.39688 z" />
        <path
           id="circle991"
           style="fill:#808080;stroke-width:0.264583"
           transform="scale(-1,1)"
           d="m -104.28306,129.07033 a 0.39687499,0.39687499 0 0 1 -0.39688,0.39687 0.39687499,0.39687499 0 0 1 -0.39687,-0.39687 0.39687499,0.39687499 0 0 1 0.39687,-0.39688 0.39687499,0.39687499 0 0 1 0.39688,0.39688 z" />
        <path
           id="circle993"
           style="fill:#808080;stroke-width:0.264583"
           transform="scale(-1,1)"
           d="m -100.42545,120.51618 a 0.39687499,0.39687499 0 0 1 -0.39688,0.39688 0.39687499,0.39687499 0 0 1 -0.39687,-0.39688 0.39687499,0.39687499 0 0 1 0.39687,-0.39687 0.39687499,0.39687499 0 0 1 0.39688,0.39687 z" />
        <path
           id="circle995"
           style="fill:#808080;stroke-width:0.264583"
           transform="scale(-1,1)"
           d="m -107.35786,123.89253 a 0.39687499,0.39687499 0 0 1 -0.39687,0.39688 0.39687499,0.39687499 0 0 1 -0.39688,-0.39688 0.39687499,0.39687499 0 0 1 0.39688,-0.39687 0.39687499,0.39687499 0 0 1 0.39687,0.39687 z" />
        <path
           id="circle997"
           style="fill:#808080;stroke-width:0.264583"
           transform="scale(-1,1)"
           d="m -111.58719,120.32178 a 0.39687499,0.39687499 0 0 1 -0.39688,0.39687 0.39687499,0.39687499 0 0 1 -0.39687,-0.39687 0.39687499,0.39687499 0 0 1 0.39687,-0.39688 0.39687499,0.39687499 0 0 1 0.39688,0.39688 z" />
        <path
           id="circle999"
           style="fill:#808080;stroke-width:0.264583"
           transform="scale(-1,1)"
           d="m -107.58878,120.46438 a 0.39687499,0.39687499 0 0 1 -0.39688,0.39687 0.39687499,0.39687499 0 0 1 -0.39687,-0.39687 0.39687499,0.39687499 0 0 1 0.39687,-0.39688 0.39687499,0.39687499 0 0 1 0.39688,0.39688 z" />
        <path
           id="circle1001"
           style="fill:#808080;stroke-width:0.264583"
           transform="scale(-1,1)"
           d="m -102.31756,128.18793 a 0.39687499,0.39687499 0 0 1 -0.39688,0.39687 0.39687499,0.39687499 0 0 1 -0.39687,-0.39687 0.39687499,0.39687499 0 0 1 0.39687,-0.39688 0.39687499,0.39687499 0 0 1 0.39688,0.39688 z" />
        <path
           id="circle1003"
           style="fill:#808080;stroke-width:0.264583"
           transform="scale(-1,1)"
           d="m -105.52681,123.47115 a 0.39687499,0.39687499 0 0 1 -0.39687,0.39688 0.39687499,0.39687499 0 0 1 -0.39688,-0.39688 0.39687499,0.39687499 0 0 1 0.39688,-0.39687 0.39687499,0.39687499 0 0 1 0.39687,0.39687 z" />
        <path
           id="circle1005"
           style="fill:#808080;stroke-width:0.264583"
           transform="scale(-1,1)"
           d="m -105.25204,128.21333 a 0.39687499,0.39687499 0 0 1 -0.39687,0.39688 0.39687499,0.39687499 0 0 1 -0.39688,-0.39688 0.39687499,0.39687499 0 0 1 0.39688,-0.39687 0.39687499,0.39687499 0 0 1 0.39687,0.39687 z" />
        <path
           id="circle1007"
           style="fill:#808080;stroke-width:0.264583"
           transform="scale(-1,1)"
           d="m -115.07242,122.33946 a 0.39687499,0.39687499 0 0 1 -0.39687,0.39688 0.39687499,0.39687499 0 0 1 -0.39688,-0.39688 0.39687499,0.39687499 0 0 1 0.39688,-0.39687 0.39687499,0.39687499 0 0 1 0.39687,0.39687 z" />
        <path
           id="circle1009"
           style="fill:#808080;stroke-width:0.264583"
           transform="scale(-1,1)"
           d="m -108.92936,130.00879 a 0.39687499,0.39687499 0 0 1 -0.39687,0.39687 0.39687499,0.39687499 0 0 1 -0.39688,-0.39687 0.39687499,0.39687499 0 0 1 0.39688,-0.39688 0.39687499,0.39687499 0 0 1 0.39687,0.39688 z" />
        <path
           id="circle1011"
           style="fill:#808080;stroke-width:0.264583"
           transform="scale(-1,1)"
           d="m -102.22565,117.37504 a 0.39687499,0.39687499 0 0 1 -0.39688,0.39687 0.39687499,0.39687499 0 0 1 -0.39687,-0.39687 0.39687499,0.39687499 0 0 1 0.39687,-0.39688 0.39687499,0.39687499 0 0 1 0.39688,0.39688 z" />
        <path
           id="circle1013"
           style="fill:#808080;stroke-width:0.264583"
           transform="scale(-1,1)"
           d="m -100.66533,120.2478 a 0.39687499,0.39687499 0 0 1 -0.39687,0.39688 0.39687499,0.39687499 0 0 1 -0.39688,-0.39688 0.39687499,0.39687499 0 0 1 0.39688,-0.39687 0.39687499,0.39687499 0 0 1 0.39687,0.39687 z" />
        <path
           id="circle1015"
           style="fill:#808080;stroke-width:0.264583"
           transform="scale(-1,1)"
           d="m -114.53004,124.42161 a 0.39687499,0.39687499 0 0 1 -0.39687,0.39687 0.39687499,0.39687499 0 0 1 -0.39688,-0.39687 0.39687499,0.39687499 0 0 1 0.39688,-0.39688 0.39687499,0.39687499 0 0 1 0.39687,0.39688 z" />
        <path
           id="circle1017"
           style="fill:#808080;stroke-width:0.264583"
           transform="scale(-1,1)"
           d="m -100.91211,123.29321 a 0.39687499,0.39687499 0 0 1 -0.39687,0.39688 0.39687499,0.39687499 0 0 1 -0.39688,-0.39688 0.39687499,0.39687499 0 0 1 0.39688,-0.39687 0.39687499,0.39687499 0 0 1 0.39687,0.39687 z" />
        <path
           id="circle1019"
           style="fill:#808080;stroke-width:0.264583"
           transform="scale(-1,1)"
           d="m -101.32455,123.03515 a 0.39687499,0.39687499 0 0 1 -0.39687,0.39687 0.39687499,0.39687499 0 0 1 -0.39688,-0.39687 0.39687499,0.39687499 0 0 1 0.39688,-0.39688 0.39687499,0.39687499 0 0 1 0.39687,0.39688 z" />
        <path
           id="circle1021"
           style="fill:#808080;stroke-width:0.264583"
           transform="scale(-1,1)"
           d="m -103.76533,121.9651 a 0.39687499,0.39687499 0 0 1 -0.39687,0.39688 0.39687499,0.39687499 0 0 1 -0.39688,-0.39688 0.39687499,0.39687499 0 0 1 0.39688,-0.39687 0.39687499,0.39687499 0 0 1 0.39687,0.39687 z" />
        <path
           id="circle1023"
           style="fill:#808080;stroke-width:0.264583"
           transform="scale(-1,1)"
           d="m -108.62051,126.61343 a 0.39687499,0.39687499 0 0 1 -0.39688,0.39687 0.39687499,0.39687499 0 0 1 -0.39687,-0.39687 0.39687499,0.39687499 0 0 1 0.39687,-0.39688 0.39687499,0.39687499 0 0 1 0.39688,0.39688 z" />
        <path
           id="circle1025"
           style="fill:#808080;stroke-width:0.264583"
           transform="scale(-1,1)"
           d="m -107.03941,121.74474 a 0.39687499,0.39687499 0 0 1 -0.39688,0.39688 0.39687499,0.39687499 0 0 1 -0.39687,-0.39688 0.39687499,0.39687499 0 0 1 0.39687,-0.39687 0.39687499,0.39687499 0 0 1 0.39688,0.39687 z" />
        <path
           id="circle1027"
           style="fill:#808080;stroke-width:0.264583"
           transform="scale(-1,1)"
           d="m -107.58865,122.98257 a 0.39687499,0.39687499 0 0 1 -0.39688,0.39687 0.39687499,0.39687499 0 0 1 -0.39687,-0.39687 0.39687499,0.39687499 0 0 1 0.39687,-0.39688 0.39687499,0.39687499 0 0 1 0.39688,0.39688 z" />
      </g>
      <path
         style="color:#000000;fill:#808080;-inkscape-stroke:none"
         d="M 95.181641,7.9804687 V 8.1132813 36.773437 H 122.97656 V 7.9804687 Z m 0.265625,0.2656251 H 122.71289 V 36.507812 H 95.447266 Z"
         id="rect1491" />
      <g
         transform="matrix(0.352778,0,0,0.352778,119.84607,33.70837)"
         ns1:version="1.8.2"
         ns1:texconverter="lualatex"
         ns1:pdfconverter="inkscape"
         ns1:text="X"
         ns1:preamble="/home/sarah/.config/inkscape/extensions/textext/default_packages.tex"
         ns1:scale="1.0"
         ns1:alignment="middle center"
         ns1:stroke-to-path="0"
         ns1:inkscapeversion="1.2.2"
         ns1:jacobian_sqrt="0.352778"
         id="g962"
         style="fill:#808080">
        <defs
           id="id-ae3c0916-90ca-420d-861a-233ccaaba3e2" />
        <g
           id="id-eefe654c-dcc4-4c34-a43c-c21975d1ceb7"
           transform="translate(-148.946,-127.953)">
          <g
             id="id-b7fd0c76-b36d-4213-b5b4-7580fbaddcc6">
            <g
               transform="translate(148.712,134.765)"
               id="g958">
              <path
                 style="stroke-width:0"
                 d="m 7.234375,0 v -0.3125 h -0.1875 c -0.515625,0 -0.734375,-0.046875 -0.9375,-0.359375 L 4,-3.84375 5.375,-5.859375 c 0.21875,-0.3125 0.5625,-0.625 1.4375,-0.640625 v -0.3125 l -1.09375,0.03125 c -0.40625,0 -0.890625,0 -1.28125,-0.03125 V -6.5 c 0.390625,0.015625 0.609375,0.234375 0.609375,0.453125 0,0.109375 -0.015625,0.125 -0.078125,0.234375 L 3.828125,-4.125 2.546875,-6.046875 C 2.515625,-6.078125 2.46875,-6.15625 2.46875,-6.203125 2.46875,-6.3125 2.6875,-6.484375 3.125,-6.5 V -6.8125 C 2.765625,-6.78125 2.046875,-6.78125 1.671875,-6.78125 L 0.375,-6.8125 V -6.5 h 0.1875 c 0.546875,0 0.734375,0.0625 0.921875,0.34375 L 3.3125,-3.375 1.6875,-0.96875 C 1.546875,-0.765625 1.25,-0.3125 0.234375,-0.3125 V 0 L 1.34375,-0.03125 c 0.375,0 0.921875,0 1.28125,0.03125 V -0.3125 C 2.15625,-0.3125 2,-0.59375 2,-0.765625 2,-0.859375 2.03125,-0.890625 2.09375,-1 l 1.421875,-2.09375 1.5625,2.375 c 0.03125,0.046875 0.0625,0.078125 0.0625,0.109375 0,0.125 -0.21875,0.296875 -0.65625,0.296875 V 0 C 4.828125,-0.03125 5.5625,-0.03125 5.9375,-0.03125 Z m 0,0"
                 id="id-8808124c-821e-4b04-9f28-fab412b94449" />
            </g>
          </g>
        </g>
      </g>
      <g
         transform="matrix(0.21751133,0,0,0.21751133,95.182105,5.67634)"
         ns1:version="1.8.2"
         ns1:texconverter="lualatex"
         ns1:pdfconverter="inkscape"
         ns1:text="$n=\\vert X\\vert = 200$"
         ns1:preamble="/home/sarah/.config/inkscape/extensions/textext/default_packages.tex"
         ns1:scale="1.0"
         ns1:alignment="middle center"
         ns1:stroke-to-path="0"
         ns1:inkscapeversion="1.2.2"
         ns1:jacobian_sqrt="0.352778"
         style="fill:#808080;stroke-width:0"
         id="g2023">
        <defs
           id="id-9652cdf4-67e8-4eb8-96a2-3f1d028ad87a"
           style="fill:#808080;fill-opacity:0.576471;stroke-width:0" />
        <g
           id="id-27ce1b76-8b25-4aa1-9ec1-9d0cbd80391f"
           transform="translate(-149.009,-127.281)">
          <g
             id="id-8f0d08e4-1f6e-42bb-afd9-5f54ecb2f8ee">
            <g
               transform="translate(148.712,134.765)"
               id="g3413">
              <g
                 id="id-0f6a541c-305b-47db-964e-7a5f123547e1">
                <path
                   style="color:#000000;-inkscape-stroke:none"
                   d="m 0.875,-0.59375 c -0.03125,0.15625 -0.09375,0.390625 -0.09375,0.4375 0,0.171875 0.140625,0.265625 0.296875,0.265625 0.125,0 0.296875,-0.078125 0.375,-0.28125 0,-0.015625 0.125,-0.484375 0.1875,-0.734375 l 0.21875,-0.890625 C 1.90625,-2.03125 1.96875,-2.25 2.03125,-2.46875 c 0.03125,-0.171875 0.109375,-0.46875 0.125,-0.5 0.140625,-0.3125 0.671875,-1.21875 1.625,-1.21875 0.453125,0 0.53125,0.375 0.53125,0.703125 0,0.609375 -0.484375,1.890625 -0.640625,2.3125 C 3.578125,-0.9375 3.5625,-0.8125 3.5625,-0.703125 c 0,0.46875 0.359375,0.8125 0.828125,0.8125 0.9375,0 1.296875,-1.453125 1.296875,-1.53125 0,-0.109375 -0.078125,-0.109375 -0.109375,-0.109375 -0.109375,0 -0.109375,0.03125 -0.15625,0.1875 -0.203125,0.671875 -0.53125,1.234375 -1.015625,1.234375 -0.171875,0 -0.234375,-0.09375 -0.234375,-0.328125 0,-0.25 0.078125,-0.484375 0.171875,-0.703125 0.1875,-0.53125 0.609375,-1.625 0.609375,-2.203125 0,-0.65625 -0.421875,-1.0625 -1.140625,-1.0625 -0.90625,0 -1.390625,0.640625 -1.5625,0.875 -0.046875,-0.5625 -0.453125,-0.875 -0.921875,-0.875 -0.453125,0 -0.640625,0.390625 -0.734375,0.5625 C 0.421875,-3.5 0.296875,-2.90625 0.296875,-2.875 c 0,0.109375 0.09375,0.109375 0.109375,0.109375 0.109375,0 0.109375,-0.015625 0.171875,-0.234375 0.171875,-0.703125 0.375,-1.1875 0.734375,-1.1875 0.1875,0 0.296875,0.125 0.296875,0.453125 0,0.21875 -0.03125,0.328125 -0.15625,0.84375 z m 0,0"
                   id="path649140" />
                <path
                   style="color:#000000;-inkscape-stroke:none"
                   d="m 1.5234375,-0.45117188 c -0.019531,0.0751952 -0.038086,0.1433106 -0.050781,0.19335938 -0.00635,0.0250244 -0.010132,0.0457459 -0.013672,0.0605469 0.00354,-0.014801 0.00928,-0.0355225 0.015625,-0.0605469 0.012695,-0.0500488 0.029297,-0.11816414 0.048828,-0.19335938 z"
                   id="path649142" />
              </g>
            </g>
          </g>
          <g
             id="id-34c7d975-ff6b-48e1-a889-8107918cbf16">
            <g
               transform="translate(157.46,134.765)"
               id="g3417">
              <g
                 id="id-9f4be4ba-1f0e-42e1-801f-f13f3b13a2cc">
                <path
                   style="color:#000000;-inkscape-stroke:none"
                   d="m 6.84375,-3.265625 c 0.15625,0 0.34375,0 0.34375,-0.1875 C 7.1875,-3.65625 7,-3.65625 6.859375,-3.65625 h -5.96875 c -0.140625,0 -0.328125,0 -0.328125,0.203125 0,0.1875 0.1875,0.1875 0.328125,0.1875 z m 0.015625,1.9375 c 0.140625,0 0.328125,0 0.328125,-0.203125 0,-0.1875 -0.1875,-0.1875 -0.34375,-0.1875 H 0.890625 c -0.140625,0 -0.328125,0 -0.328125,0.1875 0,0.203125 0.1875,0.203125 0.328125,0.203125 z m 0,0"
                   id="path649146" />
                <path
                   style="color:#000000;-inkscape-stroke:none"
                   d="m 0.59375,-3.3457031 c 3.2207e-4,4.401e-4 -3.2648e-4,0.00152 0,0.00195 0.0197754,0.026367 0.0478515,0.042969 0.0800781,0.054687 -0.0322265,-0.011719 -0.0603028,-0.030274 -0.0800781,-0.056641 z m 6.5625,0 c -0.020019,0.026367 -0.048828,0.044922 -0.082031,0.056641 0.033203,-0.011719 0.062012,-0.02832 0.082031,-0.054687 3.305e-4,-4.353e-4 -3.26e-4,-0.00151 0,-0.00195 z m -6.48242188,1.6503906 c -0.0322266,0.011719 -0.0603027,0.02832 -0.0800781,0.054687 -3.2648e-4,4.353e-4 3.2207e-4,0.00151 0,0.00195 0.0197753,-0.026367 0.0478517,-0.044922 0.0800781,-0.056641 z m 6.40039058,0 c 0.033203,0.011719 0.062012,0.030274 0.082031,0.056641 -3.26e-4,-4.401e-4 3.305e-4,-0.00152 0,-0.00195 -0.02002,-0.026367 -0.048828,-0.042969 -0.082031,-0.054687 z"
                   id="path649148" />
              </g>
            </g>
          </g>
          <g
             id="id-b7f25caa-40d1-4075-bfde-12ebdc29116f">
            <g
               transform="translate(167.976,134.765)"
               id="g3421">
              <g
                 id="id-48d5a0dd-b379-429a-93cc-00de85a34995">
                <path
                   style="color:#000000;-inkscape-stroke:none"
                   d="m 1.578125,-7.125 c 0,-0.171875 0,-0.359375 -0.1875,-0.359375 -0.203125,0 -0.203125,0.1875 -0.203125,0.359375 v 9.265625 c 0,0.171875 0,0.359375 0.203125,0.359375 0.1875,0 0.1875,-0.1875 0.1875,-0.359375 z m 0,0"
                   id="path649152" />
                <path
                   style="color:#000000;-inkscape-stroke:none"
                   d="m 1.4980469,-7.453125 c 0.026367,0.020264 0.044922,0.049805 0.056641,0.083984 -0.011719,-0.03418 -0.02832,-0.063721 -0.054687,-0.083984 -4.353e-4,-3.345e-4 -0.00151,3.299e-4 -0.00195,0 z m 0.056641,9.8378906 c -0.011719,0.03418 -0.030274,0.063721 -0.056641,0.083984 4.401e-4,-3.299e-4 0.00152,3.345e-4 0.00195,0 0.026367,-0.020264 0.042969,-0.049805 0.054687,-0.083984 z"
                   id="path649154" />
              </g>
            </g>
          </g>
          <g
             id="id-b4097485-b2f6-4192-aa63-27094eddd551">
            <g
               transform="translate(170.743,134.765)"
               id="g3425">
              <g
                 id="id-2ccbedbb-7b51-4eb1-8c11-5c9b0a82518b">
                <path
                   style="color:#000000;-inkscape-stroke:none"
                   d="M 4.828125,-4.09375 4,-6.078125 c -0.03125,-0.078125 -0.046875,-0.125 -0.046875,-0.125 0,-0.0625 0.15625,-0.25 0.578125,-0.296875 0.109375,-0.015625 0.203125,-0.015625 0.203125,-0.1875 0,-0.125 -0.125,-0.125 -0.15625,-0.125 -0.40625,0 -0.828125,0.03125 -1.25,0.03125 -0.25,0 -0.859375,-0.03125 -1.109375,-0.03125 -0.0625,0 -0.1875,0 -0.1875,0.203125 C 2.03125,-6.5 2.140625,-6.5 2.265625,-6.5 c 0.59375,0 0.65625,0.09375 0.75,0.3125 l 1.171875,2.78125 -2.109375,2.265625 -0.125,0.109375 C 1.46875,-0.5 1,-0.34375 0.484375,-0.3125 c -0.125,0.015625 -0.21875,0.015625 -0.21875,0.203125 0,0.015625 0,0.109375 0.140625,0.109375 0.296875,0 0.625,-0.03125 0.921875,-0.03125 C 1.703125,-0.03125 2.09375,0 2.453125,0 2.515625,0 2.625,0 2.625,-0.203125 2.625,-0.296875 2.53125,-0.3125 2.515625,-0.3125 c -0.09375,0 -0.40625,-0.03125 -0.40625,-0.3125 0,-0.15625 0.15625,-0.3125 0.265625,-0.4375 L 3.40625,-2.140625 4.296875,-3.125 l 1,2.390625 c 0.046875,0.109375 0.0625,0.109375 0.0625,0.140625 0,0.078125 -0.203125,0.25 -0.578125,0.28125 C 4.671875,-0.296875 4.578125,-0.296875 4.578125,-0.125 4.578125,0 4.6875,0 4.71875,0 5,0 5.703125,-0.03125 5.984375,-0.03125 6.234375,-0.03125 6.84375,0 7.09375,0 c 0.0625,0 0.1875,0 0.1875,-0.1875 0,-0.125 -0.109375,-0.125 -0.1875,-0.125 -0.65625,0 -0.6875,-0.03125 -0.859375,-0.4375 C 5.859375,-1.671875 5.1875,-3.234375 4.953125,-3.828125 5.625,-4.53125 6.671875,-5.71875 7,-5.984375 7.28125,-6.234375 7.671875,-6.46875 8.265625,-6.5 c 0.125,-0.015625 0.21875,-0.015625 0.21875,-0.203125 0,0 0,-0.109375 -0.125,-0.109375 -0.296875,0 -0.640625,0.03125 -0.9375,0.03125 -0.375,0 -0.75,-0.03125 -1.109375,-0.03125 -0.0625,0 -0.1875,0 -0.1875,0.203125 0,0.0625 0.046875,0.09375 0.109375,0.109375 0.09375,0.015625 0.40625,0.03125 0.40625,0.3125 0,0.140625 -0.109375,0.265625 -0.1875,0.359375 z m 0,0"
                   id="path649158" />
                <path
                   style="color:#000000;-inkscape-stroke:none"
                   d="M 4.828125,-4.09375 4,-6.078125 c -0.03125,-0.078125 -0.046875,-0.125 -0.046875,-0.125 0,-0.0625 0.1562504,-0.25 0.578125,-0.296875 0.1093749,-0.015625 0.203125,-0.015625 0.203125,-0.1875 0,-0.1249999 -0.125,-0.125 -0.15625,-0.125 -0.4062496,0 -0.8281254,0.03125 -1.25,0.03125 -0.2499998,0 -0.8593752,-0.03125 -1.109375,-0.03125 -0.0625,0 -0.1875,2e-7 -0.1875,0.203125 0,0.1093749 0.1093751,0.109375 0.234375,0.109375 0.5937494,0 0.6562501,0.09375 0.75,0.3125 l 1.171875,2.78125 -2.109375,2.265625 -0.125,0.109375 C 1.4687505,-0.50000053 0.99999948,-0.34374997 0.484375,-0.3125 0.35937513,-0.296875 0.265625,-0.2968748 0.265625,-0.109375 0.265625,-0.09375002 0.26562514,0 0.40625,0 0.7031247,0 1.0312503,-0.03125 1.328125,-0.03125 1.7031246,-0.03125 2.0937504,0 2.453125,0 2.5156249,0 2.625,-2.03125e-7 2.625,-0.203125 2.625,-0.29687491 2.53125,-0.3125 2.515625,-0.3125 c -0.09375,0 -0.40625,-0.0312503 -0.40625,-0.3125 0,-0.15624984 0.1562501,-0.31250012 0.265625,-0.4375 L 3.40625,-2.140625 4.296875,-3.125 l 1,2.390625 c 0.046875,0.10937489 0.0625,0.10937503 0.0625,0.140625 0,0.0781249 -0.2031254,0.25000003 -0.578125,0.28125 C 4.6718751,-0.296875 4.578125,-0.2968748 4.578125,-0.125 4.578125,-1.25e-7 4.6875,0 4.71875,0 4.9999997,0 5.7031253,-0.03125 5.984375,-0.03125 6.2343747,-0.03125 6.8437502,0 7.09375,0 c 0.0625,0 0.1875,-1.875e-7 0.1875,-0.1875 0,-0.12499988 -0.1093751,-0.125 -0.1875,-0.125 -0.6562493,0 -0.6875002,-0.0312504 -0.859375,-0.4375 C 5.8593754,-1.6718741 5.1874998,-3.2343756 4.953125,-3.828125 5.6249993,-4.5312493 6.6718753,-5.7187503 7,-5.984375 7.2812497,-6.2343747 7.6718756,-6.46875 8.265625,-6.5 c 0.1249999,-0.015625 0.21875,-0.015625 0.21875,-0.203125 0,0 -10e-8,-0.109375 -0.125,-0.109375 -0.2968747,0 -0.6406253,0.03125 -0.9375,0.03125 -0.3749996,0 -0.7500004,-0.03125 -1.109375,-0.03125 -0.0625,0 -0.1875,2e-7 -0.1875,0.203125 0,0.0625 0.046875,0.09375 0.109375,0.109375 0.09375,0.015625 0.40625,0.03125 0.40625,0.3125 0,0.1406249 -0.1093751,0.2656251 -0.1875,0.359375 z"
                   id="path649160" />
              </g>
            </g>
          </g>
          <g
             id="id-bcdd9523-db9a-40eb-bfdb-fabaab53b8b5">
            <g
               transform="translate(179.779,134.765)"
               id="g3429">
              <g
                 id="id-224a1c8a-6313-4f36-a72f-7278df878f63">
                <path
                   style="color:#000000;-inkscape-stroke:none"
                   d="m 1.578125,-7.125 c 0,-0.171875 0,-0.359375 -0.1875,-0.359375 -0.203125,0 -0.203125,0.1875 -0.203125,0.359375 v 9.265625 c 0,0.171875 0,0.359375 0.203125,0.359375 0.1875,0 0.1875,-0.1875 0.1875,-0.359375 z m 0,0"
                   id="path649164" />
                <path
                   style="color:#000000;-inkscape-stroke:none"
                   d="m 1.4980469,-7.453125 c 0.026367,0.020264 0.044922,0.049805 0.056641,0.083984 -0.011719,-0.03418 -0.02832,-0.063721 -0.054687,-0.083984 -4.353e-4,-3.345e-4 -0.00151,3.299e-4 -0.00195,0 z m 0.056641,9.8378906 c -0.011719,0.03418 -0.030274,0.063721 -0.056641,0.083984 4.401e-4,-3.299e-4 0.00152,3.345e-4 0.00195,0 0.026367,-0.020264 0.042969,-0.049805 0.054687,-0.083984 z"
                   id="path649166" />
              </g>
            </g>
          </g>
          <g
             id="id-fbe0450b-782b-41c0-a66f-5dd1cb7ffb00">
            <g
               transform="translate(185.313,134.765)"
               id="g3433">
              <g
                 id="id-7d41b099-60e8-4616-9fa2-ddbb1ef14a1e">
                <path
                   style="color:#000000;-inkscape-stroke:none"
                   d="m 6.84375,-3.265625 c 0.15625,0 0.34375,0 0.34375,-0.1875 C 7.1875,-3.65625 7,-3.65625 6.859375,-3.65625 h -5.96875 c -0.140625,0 -0.328125,0 -0.328125,0.203125 0,0.1875 0.1875,0.1875 0.328125,0.1875 z m 0.015625,1.9375 c 0.140625,0 0.328125,0 0.328125,-0.203125 0,-0.1875 -0.1875,-0.1875 -0.34375,-0.1875 H 0.890625 c -0.140625,0 -0.328125,0 -0.328125,0.1875 0,0.203125 0.1875,0.203125 0.328125,0.203125 z m 0,0"
                   id="path649170" />
                <path
                   style="color:#000000;-inkscape-stroke:none"
                   d="m 0.59375,-3.3457031 c 3.2207e-4,4.401e-4 -3.2648e-4,0.00152 0,0.00195 0.0197754,0.026367 0.0478515,0.042969 0.0800781,0.054687 -0.0322265,-0.011719 -0.0603028,-0.030274 -0.0800781,-0.056641 z m 6.5625,0 c -0.020019,0.026367 -0.048828,0.044922 -0.082031,0.056641 0.033203,-0.011719 0.062012,-0.02832 0.082031,-0.054687 3.305e-4,-4.353e-4 -3.26e-4,-0.00151 0,-0.00195 z m -6.48242188,1.6503906 c -0.0322266,0.011719 -0.0603027,0.02832 -0.0800781,0.054687 -3.2648e-4,4.353e-4 3.2207e-4,0.00151 0,0.00195 0.0197753,-0.026367 0.0478517,-0.044922 0.0800781,-0.056641 z m 6.40039058,0 c 0.033203,0.011719 0.062012,0.030274 0.082031,0.056641 -3.26e-4,-4.401e-4 3.305e-4,-0.00152 0,-0.00195 -0.02002,-0.026367 -0.048828,-0.042969 -0.082031,-0.054687 z"
                   id="path649172" />
              </g>
            </g>
          </g>
          <g
             id="id-27921089-f1d6-49ef-8b78-c4a28e7ccbbc">
            <g
               transform="translate(195.822,134.765)"
               id="g3437">
              <g
                 id="id-c20dd220-78f9-4d8f-817f-1e6f7c8ac955">
                <path
                   style="color:#000000;-inkscape-stroke:none"
                   d="m 1.265625,-0.765625 1.0625,-1.03125 c 1.546875,-1.375 2.140625,-1.90625 2.140625,-2.90625 0,-1.140625 -0.890625,-1.9375 -2.109375,-1.9375 -1.125,0 -1.859375,0.921875 -1.859375,1.8125 0,0.546875 0.5,0.546875 0.53125,0.546875 0.171875,0 0.515625,-0.109375 0.515625,-0.53125 0,-0.25 -0.1875,-0.515625 -0.53125,-0.515625 -0.078125,0 -0.09375,0 -0.125,0.015625 0.21875,-0.65625 0.765625,-1.015625 1.34375,-1.015625 0.90625,0 1.328125,0.8125 1.328125,1.625 C 3.5625,-3.90625 3.078125,-3.125 2.515625,-2.5 l -1.90625,2.125 C 0.5,-0.265625 0.5,-0.234375 0.5,0 H 4.203125 L 4.46875,-1.734375 H 4.234375 C 4.171875,-1.4375 4.109375,-1 4,-0.84375 3.9375,-0.765625 3.28125,-0.765625 3.0625,-0.765625 Z m 0,0"
                   id="path649176" />
                <path
                   style="color:#000000;-inkscape-stroke:none"
                   d="m 1.265625,-0.765625 1.0625,-1.03125 c 1.5468735,-1.3749986 2.140625,-1.906251 2.140625,-2.90625 0,-1.1406239 -0.8906262,-1.9375 -2.109375,-1.9375 -1.1249989,0 -1.859375,0.9218759 -1.859375,1.8125 0,0.5468745 0.5,0.546875 0.53125,0.546875 0.1718748,0 0.515625,-0.1093754 0.515625,-0.53125 0,-0.2499997 -0.1875003,-0.515625 -0.53125,-0.515625 -0.0781249,0 -0.09375,0 -0.125,0.015625 0.2187498,-0.6562493 0.7656256,-1.015625 1.34375,-1.015625 0.9062491,0 1.328125,0.8125008 1.328125,1.625 0,0.7968742 -0.4843756,1.5781256 -1.046875,2.203125 l -1.90625,2.125 C 0.50000011,-0.26562511 0.5,-0.23437477 0.5,0 H 4.203125 L 4.46875,-1.734375 H 4.234375 C 4.1718751,-1.4375003 4.1093749,-0.99999984 4,-0.84375 3.9375,-0.7656251 3.2812498,-0.765625 3.0625,-0.765625 Z"
                   id="path649178" />
              </g>
            </g>
            <g
               transform="translate(200.803,134.765)"
               id="g3440">
              <g
                 id="id-6f83f943-a832-4aa5-874b-bfaf369af17a">
                <path
                   style="color:#000000;-inkscape-stroke:none"
                   d="m 4.578125,-3.1875 c 0,-0.796875 -0.046875,-1.59375 -0.390625,-2.328125 -0.453125,-0.96875 -1.28125,-1.125 -1.6875,-1.125 -0.609375,0 -1.328125,0.265625 -1.75,1.1875 -0.3125,0.6875 -0.359375,1.46875 -0.359375,2.265625 0,0.75 0.03125,1.640625 0.453125,2.40625 0.421875,0.796875 1.15625,1 1.640625,1 0.53125,0 1.296875,-0.203125 1.734375,-1.15625 0.3125,-0.6875 0.359375,-1.46875 0.359375,-2.25 z M 2.484375,0 C 2.09375,0 1.5,-0.25 1.328125,-1.203125 1.21875,-1.796875 1.21875,-2.71875 1.21875,-3.3125 c 0,-0.640625 0,-1.296875 0.078125,-1.828125 0.1875,-1.1875 0.9375,-1.28125 1.1875,-1.28125 0.328125,0 0.984375,0.1875 1.171875,1.171875 0.109375,0.5625 0.109375,1.3125 0.109375,1.9375 0,0.75 0,1.421875 -0.109375,2.0625 C 3.5,-0.296875 2.9375,0 2.484375,0 Z m 0,0"
                   id="path649182" />
                <path
                   style="color:#000000;-inkscape-stroke:none"
                   d="m 4.578125,-3.1875 c 0,-0.7968742 -0.046875,-1.5937507 -0.390625,-2.328125 -0.4531245,-0.968749 -1.2812504,-1.125 -1.6875,-1.125 -0.6093744,0 -1.3281254,0.2656259 -1.75,1.1875 -0.31249969,0.6874993 -0.359375,1.4687508 -0.359375,2.265625 0,0.7499992 0.0312504,1.6406258 0.453125,2.40625 0.4218746,0.7968742 1.1562505,1 1.640625,1 0.5312495,0 1.2968754,-0.20312595 1.734375,-1.15625 0.3124997,-0.6874993 0.359375,-1.4687508 0.359375,-2.25 z M 2.484375,0 C 2.0937504,0 1.4999998,-0.25000095 1.328125,-1.203125 1.2187501,-1.7968744 1.21875,-2.7187506 1.21875,-3.3125 c 0,-0.6406244 1e-7,-1.2968755 0.078125,-1.828125 0.1874998,-1.1874988 0.9375002,-1.28125 1.1875,-1.28125 0.3281247,0 0.9843752,0.187501 1.171875,1.171875 0.1093749,0.5624994 0.109375,1.3125006 0.109375,1.9375 0,0.7499992 -10e-8,1.4218756 -0.109375,2.0625 C 3.5000002,-0.29687595 2.9374995,0 2.484375,0 Z"
                   id="path649184" />
              </g>
            </g>
            <g
               transform="translate(205.784,134.765)"
               id="g3443">
              <g
                 id="id-336acff5-8771-42b8-a388-ceb8482ff590">
                <path
                   style="color:#000000;-inkscape-stroke:none"
                   d="m 4.578125,-3.1875 c 0,-0.796875 -0.046875,-1.59375 -0.390625,-2.328125 -0.453125,-0.96875 -1.28125,-1.125 -1.6875,-1.125 -0.609375,0 -1.328125,0.265625 -1.75,1.1875 -0.3125,0.6875 -0.359375,1.46875 -0.359375,2.265625 0,0.75 0.03125,1.640625 0.453125,2.40625 0.421875,0.796875 1.15625,1 1.640625,1 0.53125,0 1.296875,-0.203125 1.734375,-1.15625 0.3125,-0.6875 0.359375,-1.46875 0.359375,-2.25 z M 2.484375,0 C 2.09375,0 1.5,-0.25 1.328125,-1.203125 1.21875,-1.796875 1.21875,-2.71875 1.21875,-3.3125 c 0,-0.640625 0,-1.296875 0.078125,-1.828125 0.1875,-1.1875 0.9375,-1.28125 1.1875,-1.28125 0.328125,0 0.984375,0.1875 1.171875,1.171875 0.109375,0.5625 0.109375,1.3125 0.109375,1.9375 0,0.75 0,1.421875 -0.109375,2.0625 C 3.5,-0.296875 2.9375,0 2.484375,0 Z m 0,0"
                   id="path649188" />
                <path
                   style="color:#000000;-inkscape-stroke:none"
                   d="m 4.578125,-3.1875 c 0,-0.7968742 -0.046875,-1.5937507 -0.390625,-2.328125 -0.4531245,-0.968749 -1.2812504,-1.125 -1.6875,-1.125 -0.6093744,0 -1.3281254,0.2656259 -1.75,1.1875 -0.31249969,0.6874993 -0.359375,1.4687508 -0.359375,2.265625 0,0.7499992 0.0312504,1.6406258 0.453125,2.40625 0.4218746,0.7968742 1.1562505,1 1.640625,1 0.5312495,0 1.2968754,-0.20312595 1.734375,-1.15625 0.3124997,-0.6874993 0.359375,-1.4687508 0.359375,-2.25 z M 2.484375,0 C 2.0937504,0 1.4999998,-0.25000095 1.328125,-1.203125 1.2187501,-1.7968744 1.21875,-2.7187506 1.21875,-3.3125 c 0,-0.6406244 1e-7,-1.2968755 0.078125,-1.828125 0.1874998,-1.1874988 0.9375002,-1.28125 1.1875,-1.28125 0.3281247,0 0.9843752,0.187501 1.171875,1.171875 0.1093749,0.5624994 0.109375,1.3125006 0.109375,1.9375 0,0.7499992 -10e-8,1.4218756 -0.109375,2.0625 C 3.5000002,-0.29687595 2.9374995,0 2.484375,0 Z"
                   id="path649190" />
              </g>
            </g>
          </g>
        </g>
      </g>
    </g>
  </g>
</svg>
