<?xml version="1.0" encoding="UTF-8" standalone="no"?>
<svg
   width="58.099998mm"
   height="15mm"
   viewBox="0 0 58.099999 15"
   version="1.1"
   id="SVGRoot"
   sodipodi:docname="nattohm-OhmLogo.svg"
   inkscape:version="1.2.2 (b0a8486541, 2022-12-01)"
   xmlns:inkscape="http://www.inkscape.org/namespaces/inkscape"
   xmlns:sodipodi="http://sodipodi.sourceforge.net/DTD/sodipodi-0.dtd"
   xmlns="http://www.w3.org/2000/svg"
   xmlns:svg="http://www.w3.org/2000/svg"
   xmlns:rdf="http://www.w3.org/1999/02/22-rdf-syntax-ns#"
   xmlns:cc="http://creativecommons.org/ns#"
   xmlns:dc="http://purl.org/dc/elements/1.1/">
  <defs
     id="defs833">
    <marker
       style="overflow:visible"
       id="ArrowNattSmall"
       refX="0"
       refY="0"
       orient="auto-start-reverse">
      <path
         style="fill:context-stroke;fill-rule:evenodd;stroke:none"
         d="M -0.625,0 -1.875,-1.25 2.5,0 -1.875,1.25 Z"
         id="path958" />
    </marker>
    <marker
       style="overflow:visible"
       id="ArrowNattMedium"
       refX="0"
       refY="0"
       orient="auto-start-reverse">
      <path
         style="fill:context-stroke;fill-rule:evenodd;stroke:none"
         d="M -3.75,0 -6.25,-2.5 2.5,0 -6.25,2.5 Z"
         id="path952" />
    </marker>
    <marker
       style="overflow:visible"
       id="ArrowNattLarge"
       refX="0"
       refY="0"
       orient="auto-start-reverse">
      <path
         style="fill:context-stroke;fill-rule:evenodd;stroke:none"
         d="m -7.5,0 -5,-5 L 5,0 -12.5,5 Z"
         id="path6" />
    </marker>
  </defs>
  <sodipodi:namedview
     id="base"
     pagecolor="#ffffff"
     bordercolor="#666666"
     borderopacity="1.0"
     inkscape:pageopacity="0.0"
     inkscape:pageshadow="2"
     inkscape:zoom="5.6568543"
     inkscape:cx="148.13887"
     inkscape:cy="33.587572"
     inkscape:document-units="mm"
     inkscape:current-layer="layer1"
     inkscape:document-rotation="0"
     showgrid="true"
     inkscape:window-width="1920"
     inkscape:window-height="1005"
     inkscape:window-x="0"
     inkscape:window-y="24"
     inkscape:window-maximized="1"
     inkscape:snap-to-guides="true"
     showguides="true"
     inkscape:guide-bbox="true"
     scale-x="1"
     units="mm"
     inkscape:snap-text-baseline="true"
     inkscape:snap-bbox="false"
     inkscape:showpageshadow="true"
     inkscape:pagecheckerboard="0"
     inkscape:deskcolor="#e0e0e0">
    <inkscape:grid
       type="xygrid"
       id="grid1407"
       units="mm"
       spacingx="0.10000000"
       spacingy="0.10000000"
       color="#0000ff"
       opacity="0.2"
       empspacing="10"
       empcolor="#0000ff"
       empopacity="0"
       dotted="true"
       visible="true"
       enabled="true"
       originx="0"
       originy="0" />
    <inkscape:grid
       type="xygrid"
       id="grid997"
       visible="true"
       enabled="true"
       units="mm"
       spacingx="1.00000000"
       spacingy="1.00000000"
       color="#413fff"
       opacity="0.14901961"
       empcolor="#3f3fff"
       empopacity="0.34901961"
       empspacing="5"
       snapvisiblegridlinesonly="false"
       originx="0"
       originy="0" />
  </sodipodi:namedview>
  <metadata
     id="metadata836">
    <rdf:RDF>
      <cc:Work
         rdf:about="">
        <dc:format>image/svg+xml</dc:format>
        <dc:type
           rdf:resource="http://purl.org/dc/dcmitype/StillImage" />
        <dc:creator>
          <cc:Agent>
            <dc:title>Oliver Natt</dc:title>
          </cc:Agent>
        </dc:creator>
      </cc:Work>
    </rdf:RDF>
  </metadata>
  <g
     inkscape:groupmode="layer"
     id="layer2"
     inkscape:label="Ebene 3" />
  <g
     inkscape:label="Ebene 2"
     inkscape:groupmode="layer"
     id="layer1">
    <path
       d="M 39.850846,6.8664056 V 4.6381979 H 39.03498 v -0.298237 h 1.91283 v 0.298237 h -0.771302 v 2.2282077 z"
       id="path159"
       style="stroke-width:0.190598;fill:#c72426;fill-opacity:1" />
    <path
       d="m 41.818525,6.9041137 c -0.167972,0 -0.315377,-0.037708 -0.442213,-0.1096964 C 41.249475,6.7224291 41.146635,6.6161607 41.074647,6.4790402 41.002658,6.3419198 40.96495,6.1773752 40.96495,5.9854065 c 0,-0.1919686 0.03428,-0.3565132 0.09941,-0.5004897 0.06513,-0.1439765 0.161116,-0.2536729 0.284525,-0.3359451 0.123408,-0.082272 0.27424,-0.1199805 0.449069,-0.1199805 0.174829,0 0.315377,0.037708 0.43193,0.1096964 0.116552,0.071988 0.20568,0.1782566 0.267385,0.3119491 0.0617,0.1336925 0.09256,0.291381 0.09256,0.4730656 V 6.0436827 H 41.29404 c 0,0.1131244 0.01714,0.2159648 0.05828,0.3085211 0.03771,0.092556 0.09598,0.1679726 0.1714,0.2228208 0.07542,0.054848 0.174829,0.082272 0.291381,0.082272 0.116553,0 0.215965,-0.027424 0.298237,-0.078844 0.08227,-0.05142 0.137121,-0.1302645 0.161117,-0.2331048 h 0.305093 c -0.02057,0.1234084 -0.06856,0.2262488 -0.147405,0.308521 -0.07542,0.082272 -0.167972,0.1474045 -0.274241,0.1885407 -0.106268,0.041136 -0.219392,0.065132 -0.335945,0.065132 z M 41.294039,5.820862 h 0.980412 c 0,-0.1028404 -0.01714,-0.1988247 -0.05142,-0.281097 -0.03428,-0.082272 -0.08913,-0.1508325 -0.161117,-0.1988247 -0.07199,-0.047992 -0.161117,-0.071988 -0.270813,-0.071988 -0.109696,0 -0.205681,0.027424 -0.281097,0.082272 -0.07542,0.054848 -0.130264,0.1234084 -0.164544,0.2091087 -0.03428,0.0857 -0.05485,0.1714006 -0.05142,0.2605289 z"
       id="path161"
       style="stroke-width:0.190598;fill:#c72426;fill-opacity:1" />
    <path
       d="m 43.762208,6.9041137 c -0.164545,0 -0.308521,-0.03428 -0.43193,-0.1062684 -0.123408,-0.071988 -0.22282,-0.1748286 -0.294809,-0.3153771 -0.07199,-0.1371204 -0.106268,-0.308521 -0.106268,-0.5107737 0,-0.1885407 0.03085,-0.3530852 0.09598,-0.4936337 0.06513,-0.1405485 0.157689,-0.2536729 0.284525,-0.3325172 0.123409,-0.078844 0.274241,-0.1199804 0.452498,-0.1199804 0.130264,0 0.246817,0.023996 0.349657,0.075416 0.10284,0.05142 0.188541,0.1199804 0.253673,0.2091087 0.06513,0.092556 0.106268,0.1988247 0.123408,0.3222331 h -0.287953 c -0.01028,-0.065132 -0.03428,-0.1234084 -0.07199,-0.1748286 -0.03771,-0.05142 -0.0857,-0.095984 -0.147404,-0.1268364 -0.0617,-0.030852 -0.133693,-0.047992 -0.215965,-0.047992 -0.154261,0 -0.281097,0.054848 -0.377081,0.1679726 -0.09598,0.1131244 -0.147405,0.284525 -0.147405,0.5142018 0,0.2091087 0.04456,0.3736533 0.133693,0.5004897 0.08913,0.1268364 0.219392,0.1885406 0.394221,0.1885406 0.08227,0 0.15426,-0.01714 0.215965,-0.047992 0.0617,-0.030852 0.109696,-0.075416 0.147404,-0.1268365 0.03771,-0.05142 0.0617,-0.1096963 0.07199,-0.1714006 h 0.281097 c -0.01371,0.1199805 -0.05485,0.2262488 -0.123408,0.3153771 -0.06856,0.089128 -0.150833,0.1576886 -0.253673,0.2056807 -0.10284,0.047992 -0.219393,0.071988 -0.346229,0.071988 z"
       id="path163"
       style="stroke-width:0.190598;fill:#c72426;fill-opacity:1" />
    <path
       d="m 44.907164,6.8664056 v -2.595005 h 0.315377 v 1.0558277 c 0.03085,-0.05142 0.07199,-0.095984 0.123408,-0.1405485 0.05142,-0.044564 0.113125,-0.078844 0.185113,-0.1062684 0.07199,-0.027424 0.157688,-0.041136 0.253673,-0.041136 0.116552,0 0.222821,0.020568 0.318805,0.065132 0.09598,0.044564 0.171401,0.1062684 0.226249,0.1851126 0.05485,0.078844 0.08227,0.1748286 0.08227,0.287953 V 6.8698336 H 46.089828 V 5.6426054 c 0,-0.1096964 -0.03771,-0.1919687 -0.109697,-0.2502449 -0.07542,-0.058276 -0.1714,-0.089128 -0.287952,-0.089128 -0.08227,0 -0.157689,0.013712 -0.226249,0.041136 -0.07199,0.027424 -0.130265,0.065132 -0.171401,0.1199804 -0.04456,0.05142 -0.06513,0.1199805 -0.06513,0.2022527 v 1.2066602 h -0.322233 z"
       id="path165"
       style="stroke-width:0.190598;fill:#c72426;fill-opacity:1" />
    <path
       d="M 46.922835,6.8664056 V 5.0598434 h 0.315377 v 0.2605288 c 0.02742,-0.05142 0.06856,-0.095984 0.11998,-0.1405484 0.05142,-0.044564 0.113125,-0.078844 0.188541,-0.1062684 0.07542,-0.027424 0.157688,-0.041136 0.257101,-0.041136 0.113124,0 0.219393,0.023996 0.315377,0.06856 0.09598,0.044564 0.1714,0.1165524 0.229677,0.2125367 0.05828,0.095984 0.0857,0.2193928 0.0857,0.3702253 v 1.1826641 h -0.322233 v -1.148384 c 0,-0.1405485 -0.03771,-0.2468168 -0.109697,-0.3153771 -0.07542,-0.06856 -0.1714,-0.1028403 -0.287953,-0.1028403 -0.08227,0 -0.157688,0.013712 -0.229676,0.041136 -0.07199,0.027424 -0.130265,0.065132 -0.171401,0.1199804 -0.04456,0.05142 -0.06513,0.1199804 -0.06513,0.1988247 v 1.2066602 h -0.322233 z"
       id="path167"
       style="stroke-width:0.190598;fill:#c72426;fill-opacity:1" />
    <path
       d="M 48.938506,4.679334 V 4.3433889 h 0.332517 V 4.679334 Z m 0.01028,2.1904996 V 5.0632714 h 0.311949 v 1.8065622 z"
       id="path169"
       style="stroke-width:0.190598;fill:#c72426;fill-opacity:1" />
    <path
       d="m 50.457115,6.9041137 c -0.126837,0 -0.243389,-0.020568 -0.349657,-0.058276 C 50.001189,6.8081294 49.908633,6.7464252 49.840073,6.6607249 49.768085,6.5784526 49.72352,6.4721842 49.70638,6.3419198 h 0.294809 c 0.01371,0.071988 0.04456,0.1302644 0.0857,0.1782566 0.04114,0.047992 0.09598,0.082272 0.161116,0.1062683 0.06513,0.023996 0.133693,0.03428 0.209109,0.03428 0.123408,0 0.219393,-0.023996 0.294809,-0.06856 0.07542,-0.044564 0.113124,-0.1165524 0.113124,-0.2091087 0,-0.065132 -0.02057,-0.1199804 -0.05828,-0.1611165 -0.03771,-0.041136 -0.09941,-0.06856 -0.181685,-0.089128 L 50.251429,6.0402555 C 50.107453,6.0059755 49.9909,5.9511275 49.901772,5.875711 49.816072,5.800295 49.771508,5.6974543 49.771508,5.5637619 c 0,-0.1062684 0.024,-0.1988247 0.07542,-0.281097 0.05142,-0.082272 0.126836,-0.1439765 0.229677,-0.1919686 0.10284,-0.047992 0.229676,-0.06856 0.380509,-0.06856 0.195397,0 0.356513,0.044564 0.476494,0.1336925 0.11998,0.089128 0.181684,0.2159647 0.18854,0.3873653 h -0.287953 c -0.01028,-0.0857 -0.05142,-0.1542605 -0.116552,-0.2056807 -0.06513,-0.05142 -0.154261,-0.075416 -0.263957,-0.075416 -0.109696,0 -0.209109,0.023996 -0.281097,0.06856 -0.07199,0.044564 -0.109696,0.1165524 -0.109696,0.2125367 0,0.065132 0.02742,0.1131244 0.07884,0.1508325 0.05142,0.037708 0.126836,0.06856 0.226249,0.092556 l 0.363369,0.092556 c 0.08227,0.020568 0.150832,0.05142 0.205681,0.0857 0.05485,0.037708 0.09941,0.075416 0.130264,0.1199804 0.03085,0.044564 0.05485,0.089128 0.06856,0.1405485 0.01371,0.05142 0.02057,0.095984 0.02057,0.1405484 0,0.1096964 -0.02742,0.2056808 -0.08227,0.284525 -0.05485,0.078844 -0.133692,0.1405485 -0.236533,0.1851127 -0.10284,0.044564 -0.229677,0.065132 -0.377081,0.065132 z"
       id="path171"
       style="stroke-width:0.190598;fill:#c72426;fill-opacity:1" />
    <path
       d="m 52.301385,6.9041137 c -0.164544,0 -0.308521,-0.03428 -0.431929,-0.1062684 -0.123409,-0.071988 -0.222821,-0.1748286 -0.294809,-0.3153771 -0.07199,-0.1371204 -0.106269,-0.308521 -0.106269,-0.5107737 0,-0.1885407 0.03085,-0.3530852 0.09598,-0.4936337 0.06513,-0.1405485 0.157688,-0.2536729 0.284525,-0.3325172 0.123408,-0.078844 0.274241,-0.1199804 0.452497,-0.1199804 0.130265,0 0.246817,0.023996 0.349657,0.075416 0.102841,0.05142 0.188541,0.1199804 0.253673,0.2091087 0.06513,0.092556 0.106269,0.1988247 0.123409,0.3222331 h -0.287953 c -0.01028,-0.065132 -0.03428,-0.1234084 -0.07199,-0.1748286 -0.03771,-0.05142 -0.0857,-0.095984 -0.147405,-0.1268364 -0.0617,-0.030852 -0.133692,-0.047992 -0.215965,-0.047992 -0.15426,0 -0.281097,0.054848 -0.377081,0.1679726 -0.09598,0.1131244 -0.147405,0.284525 -0.147405,0.5142018 0,0.2091087 0.04456,0.3736533 0.133693,0.5004897 0.08913,0.1268364 0.219393,0.1885406 0.394221,0.1885406 0.08227,0 0.154261,-0.01714 0.215965,-0.047992 0.0617,-0.030852 0.109696,-0.075416 0.147405,-0.1268365 0.03771,-0.05142 0.0617,-0.1096963 0.07199,-0.1714006 h 0.281097 c -0.01371,0.1199805 -0.05485,0.2262488 -0.123409,0.3153771 -0.06856,0.089128 -0.150832,0.1576886 -0.253673,0.2056807 -0.10284,0.047992 -0.219392,0.071988 -0.346229,0.071988 z"
       id="path173"
       style="stroke-width:0.190598;fill:#c72426;fill-opacity:1" />
    <path
       d="m 53.449769,6.8664056 v -2.595005 h 0.315377 v 1.0558277 c 0.03085,-0.05142 0.07199,-0.095984 0.123409,-0.1405485 0.05142,-0.044564 0.113124,-0.078844 0.185112,-0.1062684 0.07199,-0.027424 0.157689,-0.041136 0.253673,-0.041136 0.116553,0 0.222821,0.020568 0.318805,0.065132 0.09599,0.044564 0.171401,0.1062684 0.226249,0.1851126 0.05485,0.078844 0.08227,0.1748286 0.08227,0.287953 V 6.8698336 H 54.632433 V 5.6426054 c 0,-0.1096964 -0.03771,-0.1919687 -0.109696,-0.2502449 -0.07542,-0.058276 -0.171401,-0.089128 -0.287953,-0.089128 -0.08227,0 -0.157689,0.013712 -0.226249,0.041136 -0.07199,0.027424 -0.130264,0.065132 -0.1714,0.1199804 -0.04457,0.05142 -0.06513,0.1199805 -0.06513,0.2022527 v 1.2066602 h -0.322233 z"
       id="path175"
       style="stroke-width:0.190598;fill:#c72426;fill-opacity:1" />
    <path
       d="m 56.229887,6.9041137 c -0.167973,0 -0.315377,-0.037708 -0.442214,-0.1096964 -0.126836,-0.071988 -0.229677,-0.1782566 -0.301665,-0.3153771 -0.07199,-0.1371204 -0.109696,-0.301665 -0.109696,-0.4936337 0,-0.1919686 0.03428,-0.3565132 0.09941,-0.5004897 0.06513,-0.1439765 0.161117,-0.2536729 0.284525,-0.3359451 0.123409,-0.082272 0.274241,-0.1199805 0.44907,-0.1199805 0.174828,0 0.315377,0.037708 0.431929,0.1096964 0.116553,0.071988 0.205681,0.1782566 0.267385,0.3119491 0.0617,0.1336925 0.09256,0.291381 0.09256,0.4730656 v 0.1199804 h -1.295788 c 0,0.1131244 0.01714,0.2159648 0.05828,0.3085211 0.03771,0.092556 0.09598,0.1679726 0.171401,0.2228208 0.07542,0.054848 0.174828,0.082272 0.291381,0.082272 0.116552,0 0.215965,-0.027424 0.298237,-0.078844 0.08227,-0.05142 0.13712,-0.1302645 0.161116,-0.2331048 h 0.305093 c -0.02057,0.1234084 -0.06856,0.2262488 -0.147404,0.308521 -0.07542,0.082272 -0.167973,0.1474045 -0.274241,0.1885407 -0.106268,0.041136 -0.219393,0.065132 -0.335945,0.065132 z M 55.705401,5.820862 h 0.980411 c 0,-0.1028404 -0.01714,-0.1988247 -0.05142,-0.281097 -0.03428,-0.082272 -0.08913,-0.1508325 -0.161116,-0.1988247 -0.07199,-0.047992 -0.161117,-0.071988 -0.270813,-0.071988 -0.109697,0 -0.205681,0.027424 -0.281097,0.082272 -0.07542,0.054848 -0.130265,0.1234084 -0.164545,0.2091087 -0.03428,0.0857 -0.05485,0.1714006 -0.05142,0.260529 z"
       id="path177"
       style="stroke-width:0.190598;fill:#c72426;fill-opacity:1" />
    <path
       d="M 39.425773,10.434966 V 7.9085212 h 0.322233 v 1.0763957 h 1.364349 V 7.9085212 h 0.322233 V 10.434966 H 41.112355 V 9.2694418 h -1.364349 v 1.1655242 z"
       id="path179"
       style="stroke-width:0.190598;fill:#c72426;fill-opacity:1" />
    <path
       d="m 42.733804,10.469246 c -0.167972,0 -0.311949,-0.03428 -0.435357,-0.106268 -0.123409,-0.07199 -0.219393,-0.178257 -0.287953,-0.315377 -0.06856,-0.137121 -0.102841,-0.3085215 -0.102841,-0.5073462 0,-0.1885407 0.03085,-0.3530852 0.09598,-0.4970617 0.06513,-0.1439765 0.157688,-0.2536729 0.281097,-0.3325172 0.123408,-0.078844 0.274241,-0.1165524 0.452497,-0.1165524 0.167973,0 0.311949,0.037708 0.43193,0.1096964 0.123408,0.071988 0.215965,0.1782566 0.284525,0.3188051 0.06856,0.1405485 0.10284,0.3119491 0.10284,0.5142018 0,0.1851126 -0.03085,0.3462292 -0.09598,0.4867772 -0.0617,0.140549 -0.154261,0.250245 -0.277669,0.32909 -0.123409,0.07884 -0.270813,0.116552 -0.452498,0.116552 z m 0,-0.253673 c 0.106269,0 0.198825,-0.02742 0.270813,-0.08227 0.07199,-0.05485 0.130265,-0.1336926 0.171401,-0.236533 0.03771,-0.1028404 0.05828,-0.2228208 0.05828,-0.3667973 0,-0.1302644 -0.01714,-0.2468168 -0.05142,-0.3496572 -0.03428,-0.1028403 -0.08913,-0.1851126 -0.161117,-0.2468168 -0.07199,-0.061704 -0.167972,-0.092556 -0.287953,-0.092556 -0.109696,0 -0.202252,0.027424 -0.277669,0.082272 -0.07542,0.054848 -0.133692,0.1336924 -0.1714,0.2365328 -0.03771,0.1028403 -0.05828,0.2262487 -0.05828,0.3702252 0,0.1268365 0.01714,0.2433889 0.05142,0.3462292 0.03428,0.1028404 0.08913,0.1851131 0.164544,0.2468171 0.07542,0.0617 0.171401,0.08913 0.291381,0.08913 z"
       id="path181"
       style="stroke-width:0.190598;fill:#c72426;fill-opacity:1" />
    <path
       d="m 44.715195,10.469246 c -0.164544,0 -0.308521,-0.03428 -0.431929,-0.106268 -0.123409,-0.07199 -0.222821,-0.174829 -0.294809,-0.315377 -0.07199,-0.137121 -0.106269,-0.3085215 -0.106269,-0.5107742 0,-0.1885407 0.03085,-0.3530853 0.09598,-0.4936337 0.06513,-0.1405485 0.157688,-0.2536729 0.284525,-0.3325172 0.123408,-0.078844 0.274241,-0.1199804 0.452497,-0.1199804 0.130265,0 0.246817,0.023996 0.349657,0.075416 0.102841,0.05142 0.188541,0.1199804 0.253673,0.2091087 0.06513,0.092556 0.106269,0.1988247 0.123409,0.3222331 h -0.287953 c -0.01028,-0.065132 -0.03428,-0.1234084 -0.07199,-0.1748286 -0.03771,-0.05142 -0.0857,-0.095984 -0.147404,-0.1268364 -0.0617,-0.030852 -0.133693,-0.047992 -0.215965,-0.047992 -0.15426,0 -0.281097,0.054848 -0.377081,0.1679726 -0.09598,0.1131244 -0.147405,0.2845249 -0.147405,0.5142017 0,0.2091088 0.04457,0.3736533 0.133693,0.5004894 0.08913,0.126837 0.219393,0.188541 0.394221,0.188541 0.08227,0 0.154261,-0.01714 0.215965,-0.04799 0.0617,-0.03085 0.109696,-0.07542 0.147404,-0.126836 0.03771,-0.051421 0.06171,-0.109697 0.07199,-0.1714012 h 0.281097 c -0.01371,0.1199804 -0.05485,0.2262492 -0.123409,0.3153772 -0.06856,0.08913 -0.150832,0.157689 -0.253673,0.205681 -0.10284,0.04799 -0.219392,0.07199 -0.346229,0.07199 z"
       id="path183"
       style="stroke-width:0.190598;fill:#c72426;fill-opacity:1" />
    <path
       d="M 45.863579,10.434966 V 7.8399609 h 0.315377 v 1.0558277 c 0.03085,-0.05142 0.07199,-0.095984 0.123409,-0.1405485 0.05142,-0.044564 0.113124,-0.078844 0.185112,-0.1062684 0.07199,-0.027424 0.157689,-0.041136 0.253673,-0.041136 0.116553,0 0.222821,0.020568 0.318805,0.065132 0.09598,0.044564 0.171401,0.1062684 0.226249,0.1851126 0.05485,0.078844 0.08227,0.1748286 0.08227,0.287953 V 10.438394 H 47.046243 V 9.2111656 c 0,-0.1096963 -0.03771,-0.1919686 -0.109696,-0.2502448 -0.07542,-0.058276 -0.171401,-0.089128 -0.287953,-0.089128 -0.08227,0 -0.157689,0.013712 -0.226249,0.041136 -0.07199,0.027424 -0.130264,0.065132 -0.171401,0.1199804 -0.04456,0.05142 -0.06513,0.1199804 -0.06513,0.2022527 v 1.2066601 h -0.322233 z"
       id="path185"
       style="stroke-width:0.190598;fill:#c72426;fill-opacity:1" />
    <path
       d="m 48.510004,10.469246 c -0.126836,0 -0.243389,-0.02057 -0.349657,-0.05828 -0.106268,-0.03771 -0.198825,-0.09941 -0.267385,-0.185113 -0.07199,-0.08227 -0.116552,-0.188541 -0.133692,-0.318805 h 0.294809 c 0.01371,0.071988 0.04456,0.130264 0.0857,0.178257 0.04114,0.04799 0.09598,0.08227 0.161116,0.106268 0.06513,0.024 0.133693,0.03428 0.209109,0.03428 0.123409,0 0.219393,-0.024 0.294809,-0.06856 0.07542,-0.04456 0.113125,-0.116553 0.113125,-0.2091088 0,-0.065132 -0.02057,-0.1199804 -0.05828,-0.1611166 -0.03771,-0.041136 -0.09941,-0.06856 -0.181684,-0.089128 L 48.304323,9.605387 c -0.143976,-0.03428 -0.260528,-0.089128 -0.349657,-0.1645446 -0.0857,-0.075416 -0.130264,-0.1782566 -0.130264,-0.311949 0,-0.1062684 0.024,-0.1988247 0.07542,-0.281097 0.05142,-0.082272 0.126837,-0.1439765 0.229677,-0.1919687 0.10284,-0.047992 0.229677,-0.06856 0.380509,-0.06856 0.195397,0 0.356513,0.044564 0.476494,0.1336925 0.11998,0.089128 0.181684,0.2159647 0.18854,0.3873653 H 48.88709 c -0.01028,-0.0857 -0.05142,-0.1542605 -0.116553,-0.2056807 -0.06513,-0.05142 -0.15426,-0.075416 -0.263957,-0.075416 -0.109696,0 -0.209109,0.023996 -0.281097,0.06856 -0.07199,0.044564 -0.109696,0.1165524 -0.109696,0.2125367 0,0.065132 0.02742,0.1131244 0.07884,0.1508325 0.05142,0.037708 0.126837,0.06856 0.226249,0.092556 l 0.363369,0.092556 c 0.08227,0.020568 0.150833,0.05142 0.205681,0.0857 0.05485,0.037708 0.09941,0.075416 0.130264,0.1199805 0.03085,0.044564 0.05485,0.089128 0.06856,0.1405484 0.01371,0.05142 0.02057,0.095984 0.02057,0.1405485 0,0.1096956 -0.02742,0.2056806 -0.08227,0.2845246 -0.05485,0.07884 -0.133692,0.140549 -0.236532,0.185113 -0.102841,0.04456 -0.229677,0.06513 -0.377082,0.06513 z"
       id="path187"
       style="stroke-width:0.190598;fill:#c72426;fill-opacity:1" />
    <path
       d="m 50.357703,10.469246 c -0.164545,0 -0.308521,-0.03428 -0.43193,-0.106268 -0.123408,-0.07199 -0.222821,-0.174829 -0.294809,-0.315377 -0.07199,-0.137121 -0.106268,-0.3085215 -0.106268,-0.5107742 0,-0.1885407 0.03085,-0.3530853 0.09598,-0.4936337 0.06513,-0.1405485 0.157689,-0.2536729 0.284525,-0.3325172 0.123408,-0.078844 0.274241,-0.1199804 0.452498,-0.1199804 0.130264,0 0.246816,0.023996 0.349657,0.075416 0.10284,0.05142 0.18854,0.1199804 0.253673,0.2091087 0.06513,0.092556 0.106268,0.1988247 0.123408,0.3222331 h -0.287953 c -0.01028,-0.065132 -0.03428,-0.1234084 -0.07199,-0.1748286 -0.03771,-0.05142 -0.0857,-0.095984 -0.147405,-0.1268364 -0.0617,-0.030852 -0.133692,-0.047992 -0.215964,-0.047992 -0.154261,0 -0.281097,0.054848 -0.377082,0.1679726 -0.09598,0.1131244 -0.147404,0.2845249 -0.147404,0.5142017 0,0.2091088 0.04456,0.3736533 0.133692,0.5004894 0.08913,0.126837 0.219393,0.188541 0.394222,0.188541 0.08227,0 0.15426,-0.01714 0.215964,-0.04799 0.06171,-0.03085 0.109697,-0.07542 0.147405,-0.126836 0.03771,-0.051421 0.0617,-0.109697 0.07199,-0.1714012 h 0.281097 c -0.01371,0.1199804 -0.05485,0.2262492 -0.123408,0.3153772 -0.06856,0.08913 -0.150833,0.157689 -0.253673,0.205681 -0.102841,0.04799 -0.219393,0.07199 -0.346229,0.07199 z"
       id="path189"
       style="stroke-width:0.190598;fill:#c72426;fill-opacity:1" />
    <path
       d="M 51.506087,10.434966 V 7.8399609 h 0.315377 v 1.0558277 c 0.03085,-0.05142 0.07199,-0.095984 0.123408,-0.1405485 0.05142,-0.044564 0.113124,-0.078844 0.185113,-0.1062684 0.07199,-0.027424 0.157688,-0.041136 0.253673,-0.041136 0.116552,0 0.22282,0.020568 0.318805,0.065132 0.09598,0.044564 0.1714,0.1062684 0.226248,0.1851126 0.05485,0.078844 0.08227,0.1748286 0.08227,0.287953 v 1.2923607 h -0.32223 V 9.2111656 c 0,-0.1096963 -0.03771,-0.1919686 -0.109697,-0.2502448 -0.07542,-0.058276 -0.1714,-0.089128 -0.287953,-0.089128 -0.08227,0 -0.157688,0.013712 -0.226249,0.041136 -0.07199,0.027424 -0.130264,0.065132 -0.1714,0.1199804 -0.04456,0.05142 -0.06513,0.1199804 -0.06513,0.2022527 v 1.2066601 h -0.322233 z"
       id="path191"
       style="stroke-width:0.190598;fill:#c72426;fill-opacity:1" />
    <path
       d="m 54.186792,10.469246 c -0.09598,0 -0.181685,-0.01371 -0.267385,-0.04114 -0.08227,-0.02742 -0.157689,-0.06513 -0.219393,-0.116553 -0.06513,-0.05142 -0.113124,-0.116552 -0.150832,-0.191968 -0.03771,-0.07542 -0.05485,-0.1645448 -0.05485,-0.2673852 V 8.6249756 h 0.322233 v 1.1929481 c 0,0.1165524 0.03771,0.2125363 0.109697,0.2879533 0.07199,0.07199 0.181684,0.109696 0.329089,0.109696 0.133692,0 0.239961,-0.03428 0.322233,-0.10284 0.08227,-0.06856 0.119981,-0.1714008 0.119981,-0.3085213 V 8.6284036 h 0.322233 v 1.8065624 h -0.257101 l -0.03428,-0.346229 c -0.02057,0.09256 -0.05828,0.164544 -0.113125,0.219392 -0.05485,0.05485 -0.116552,0.09599 -0.191968,0.123409 -0.07542,0.02742 -0.154261,0.03771 -0.239961,0.03771 z"
       id="path193"
       style="stroke-width:0.190598;fill:#c72426;fill-opacity:1" />
    <path
       d="m 56.027634,10.458962 c -0.09941,0 -0.178257,-0.01371 -0.236533,-0.04114 -0.0617,-0.02742 -0.106268,-0.0617 -0.13712,-0.109697 -0.03085,-0.04456 -0.05485,-0.09598 -0.06513,-0.157688 -0.01028,-0.05828 -0.01714,-0.119981 -0.01714,-0.1816848 V 7.8365329 h 0.318805 v 2.1013712 c 0,0.089128 0.01714,0.1576889 0.05485,0.2056809 0.03428,0.04456 0.0857,0.07199 0.150832,0.07542 h 0.09941 v 0.212537 c -0.02742,0.0069 -0.05485,0.01371 -0.08227,0.02057 -0.02742,0.0069 -0.05485,0.0069 -0.07884,0.0069 z"
       id="path195"
       style="stroke-width:0.190598;fill:#c72426;fill-opacity:1" />
    <path
       d="m 57.30971,10.469246 c -0.167972,0 -0.315377,-0.03771 -0.442213,-0.109696 -0.126836,-0.07199 -0.229677,-0.178257 -0.301665,-0.315377 -0.07199,-0.137121 -0.109696,-0.3016655 -0.109696,-0.4936342 0,-0.1919687 0.03428,-0.3565132 0.09941,-0.5004897 0.06513,-0.1439765 0.161116,-0.2536729 0.284525,-0.3359452 0.123408,-0.082272 0.274241,-0.1199804 0.449069,-0.1199804 0.174829,0 0.315378,0.037708 0.43193,0.1096964 0.116552,0.071988 0.205681,0.1782566 0.267385,0.3119491 0.0617,0.1336924 0.09256,0.291381 0.09256,0.4730656 V 9.608815 h -1.295788 c 0,0.1131244 0.01714,0.2159648 0.05828,0.3085211 0.03771,0.092556 0.09598,0.1679729 0.1714,0.2228209 0.07542,0.05485 0.174829,0.08227 0.291381,0.08227 0.116553,0 0.215965,-0.02742 0.298238,-0.07884 0.08227,-0.05142 0.13712,-0.130265 0.161116,-0.233105 h 0.305093 c -0.02057,0.123408 -0.06856,0.226249 -0.147404,0.308521 -0.07542,0.08227 -0.167973,0.147405 -0.274241,0.188541 -0.106269,0.04114 -0.219393,0.06513 -0.335945,0.06513 z M 56.785225,9.3859942 h 0.980411 c 0,-0.1028403 -0.01714,-0.1988246 -0.05142,-0.2810969 -0.03428,-0.082272 -0.08913,-0.1508325 -0.161117,-0.1988247 -0.07199,-0.047992 -0.161116,-0.071988 -0.270813,-0.071988 -0.109696,0 -0.20568,0.027424 -0.281097,0.082272 -0.07542,0.054848 -0.130264,0.1234085 -0.164544,0.2091087 -0.03428,0.0857 -0.05485,0.1714006 -0.05142,0.2605289 z"
       id="path197"
       style="stroke-width:0.190598;fill:#c72426;fill-opacity:1" />
    <path
       d="m 39.425773,14.003526 v -2.526445 h 0.308521 l 1.333497,1.964251 v -1.964251 h 0.322233 v 2.526445 h -0.287953 l -1.357493,-1.991675 v 1.991675 h -0.322233 z"
       id="path199"
       style="stroke-width:0.190598;fill:#c72426;fill-opacity:1" />
    <path
       d="m 42.658388,14.037806 c -0.09598,0 -0.181685,-0.01371 -0.267385,-0.04114 -0.08227,-0.02742 -0.157688,-0.06513 -0.219393,-0.116552 -0.06513,-0.05142 -0.113124,-0.116553 -0.150832,-0.191969 -0.03771,-0.07542 -0.05485,-0.164545 -0.05485,-0.267385 v -1.227228 h 0.322233 v 1.192948 c 0,0.116552 0.03771,0.212537 0.109696,0.287953 0.07199,0.07199 0.181685,0.109696 0.329089,0.109696 0.133693,0 0.239961,-0.03428 0.322233,-0.10284 0.08227,-0.06856 0.119981,-0.171401 0.119981,-0.308521 V 12.19696 h 0.322233 v 1.806562 h -0.257101 l -0.03428,-0.346229 c -0.02057,0.09256 -0.05828,0.164545 -0.113124,0.219393 -0.05485,0.05485 -0.116553,0.09598 -0.191969,0.123408 -0.07542,0.02742 -0.154261,0.03771 -0.239961,0.03771 z m -0.425073,-2.248775 v -0.31195 h 0.318805 v 0.31195 z m 0.678746,0 v -0.31195 h 0.318805 v 0.31195 z"
       id="path201"
       style="stroke-width:0.190598;fill:#c72426;fill-opacity:1" />
    <path
       d="m 44.043305,14.003526 v -1.806562 h 0.308521 v 0.346229 c 0.03085,-0.0857 0.07199,-0.157688 0.126836,-0.212537 0.05485,-0.05828 0.116553,-0.09941 0.188541,-0.126836 0.07199,-0.02742 0.143976,-0.04114 0.219393,-0.04114 0.02742,0 0.05142,0 0.07884,0.0069 0.02742,0.0034 0.04456,0.01028 0.05828,0.01714 v 0.311949 c -0.01714,-0.0069 -0.04114,-0.01371 -0.06856,-0.01714 -0.02742,-0.0034 -0.05142,-0.0034 -0.06856,-0.0034 -0.07199,-0.0034 -0.140549,0 -0.202253,0.01371 -0.0617,0.01371 -0.116552,0.03771 -0.164545,0.06856 -0.04799,0.03428 -0.0857,0.07542 -0.113124,0.130265 -0.02742,0.05142 -0.04114,0.116552 -0.04114,0.191968 v 1.124388 h -0.322233 z"
       id="path203"
       style="stroke-width:0.190598;fill:#c72426;fill-opacity:1" />
    <path
       d="m 45.411082,14.003526 v -1.806562 h 0.315377 v 0.260529 c 0.02742,-0.05142 0.06856,-0.09598 0.11998,-0.140549 0.05142,-0.04456 0.113124,-0.07884 0.188541,-0.106268 0.07542,-0.02742 0.157688,-0.04114 0.257101,-0.04114 0.113124,0 0.219392,0.024 0.315377,0.06856 0.09598,0.04456 0.1714,0.116552 0.229676,0.212537 0.05828,0.09598 0.0857,0.219393 0.0857,0.370225 v 1.182664 h -0.322233 v -1.148384 c 0,-0.140548 -0.03771,-0.246817 -0.109697,-0.315377 -0.07542,-0.06856 -0.1714,-0.10284 -0.287953,-0.10284 -0.08227,0 -0.157688,0.01371 -0.229677,0.04114 -0.07199,0.02742 -0.130264,0.06513 -0.1714,0.11998 -0.04456,0.05142 -0.06513,0.119981 -0.06513,0.198825 v 1.20666 H 45.41451 Z"
       id="path205"
       style="stroke-width:0.190598;fill:#c72426;fill-opacity:1" />
    <path
       d="m 48.321464,14.037806 c -0.106269,0 -0.195397,-0.01371 -0.267385,-0.04114 -0.07199,-0.02742 -0.133693,-0.06513 -0.178257,-0.106268 -0.04799,-0.04456 -0.08227,-0.08913 -0.109696,-0.133693 -0.02742,-0.04456 -0.04456,-0.0857 -0.05485,-0.11998 l -0.03428,0.370225 H 47.43018 v -2.595005 h 0.325662 v 1.076396 c 0.01371,-0.03085 0.03771,-0.06513 0.06856,-0.09941 0.03085,-0.03428 0.07199,-0.07199 0.11998,-0.106269 0.04799,-0.03428 0.106269,-0.0617 0.174829,-0.08227 0.06856,-0.02057 0.143976,-0.03428 0.229677,-0.03428 0.226248,0 0.404505,0.07884 0.538198,0.236533 0.133692,0.157688 0.198824,0.387365 0.198824,0.695886 0,0.188541 -0.02742,0.356513 -0.0857,0.497062 -0.05828,0.140548 -0.140549,0.250245 -0.253673,0.329089 -0.113124,0.07884 -0.253673,0.116552 -0.421645,0.116552 z m -0.05828,-0.246817 c 0.147405,0 0.267385,-0.05828 0.356514,-0.1714 0.09256,-0.113125 0.13712,-0.294809 0.13712,-0.541626 0,-0.212537 -0.04114,-0.373653 -0.130264,-0.490206 -0.0857,-0.116552 -0.209109,-0.174828 -0.373654,-0.174828 -0.11998,0 -0.215964,0.02742 -0.287953,0.07884 -0.07199,0.05142 -0.126836,0.126836 -0.161116,0.226249 -0.03428,0.09941 -0.05142,0.219392 -0.05485,0.359941 0,0.253673 0.04114,0.435357 0.116552,0.545054 0.07884,0.109696 0.209109,0.167972 0.390793,0.167972 z"
       id="path207"
       style="stroke-width:0.190598;fill:#c72426;fill-opacity:1" />
    <path
       d="m 50.27543,14.037806 c -0.167972,0 -0.315377,-0.03771 -0.442213,-0.109696 -0.126837,-0.07199 -0.229677,-0.178257 -0.301665,-0.315377 -0.07199,-0.137121 -0.109697,-0.301665 -0.109697,-0.493634 0,-0.191969 0.03428,-0.356513 0.09941,-0.50049 0.06513,-0.143976 0.161116,-0.253673 0.284525,-0.335945 0.123408,-0.08227 0.274241,-0.11998 0.449069,-0.11998 0.174829,0 0.315377,0.03771 0.43193,0.109696 0.116552,0.07199 0.20568,0.178257 0.267385,0.311949 0.0617,0.133693 0.09256,0.291381 0.09256,0.473066 v 0.11998 h -1.295789 c 0,0.113125 0.01714,0.215965 0.05828,0.308521 0.03771,0.09256 0.09598,0.167973 0.1714,0.222821 0.07542,0.05485 0.174829,0.08227 0.291381,0.08227 0.116553,0 0.215965,-0.02742 0.298237,-0.07884 0.08227,-0.05142 0.137121,-0.130264 0.161117,-0.233105 h 0.305093 c -0.02057,0.123409 -0.06856,0.226249 -0.147405,0.308521 -0.07542,0.08227 -0.167972,0.147405 -0.274241,0.188541 -0.106268,0.04114 -0.219392,0.06513 -0.335945,0.06513 z m -0.524486,-1.083251 h 0.980412 c 0,-0.102841 -0.01714,-0.198825 -0.05142,-0.281097 -0.03428,-0.08227 -0.08913,-0.150833 -0.161117,-0.198825 -0.07199,-0.04799 -0.161116,-0.07199 -0.270813,-0.07199 -0.109696,0 -0.205681,0.02742 -0.281097,0.08227 -0.07542,0.05485 -0.130264,0.123408 -0.164544,0.209109 -0.03428,0.0857 -0.05485,0.1714 -0.05142,0.260529 z"
       id="path209"
       style="stroke-width:0.190598;fill:#c72426;fill-opacity:1" />
    <path
       d="m 51.488946,14.003526 v -1.806562 h 0.308522 v 0.346229 c 0.03085,-0.0857 0.07199,-0.157688 0.126836,-0.212537 0.05485,-0.05828 0.116552,-0.09941 0.188541,-0.126836 0.07199,-0.02742 0.143976,-0.04114 0.219392,-0.04114 0.02742,0 0.05142,0 0.07885,0.0069 0.02742,0.0034 0.04456,0.01028 0.05828,0.01714 v 0.311949 c -0.01714,-0.0069 -0.04114,-0.01371 -0.06856,-0.01714 -0.02742,-0.0034 -0.05142,-0.0034 -0.06856,-0.0034 -0.07199,-0.0034 -0.140548,0 -0.202252,0.01371 -0.0617,0.01371 -0.116553,0.03771 -0.164545,0.06856 -0.04799,0.03428 -0.0857,0.07542 -0.113124,0.130265 -0.02742,0.05142 -0.04114,0.116552 -0.04114,0.191968 v 1.124388 h -0.322234 z"
       id="path211"
       style="stroke-width:0.190598;fill:#c72426;fill-opacity:1" />
    <path
       d="m 53.566322,14.6 c -0.284525,0 -0.503918,-0.04114 -0.661607,-0.123408 -0.157688,-0.08227 -0.236532,-0.198825 -0.236532,-0.353085 0,-0.06513 0.01371,-0.119981 0.04456,-0.167973 0.03085,-0.04456 0.06513,-0.0857 0.109696,-0.113124 0.04114,-0.03085 0.08227,-0.05485 0.116552,-0.07199 0.03428,-0.01714 0.05828,-0.03085 0.06856,-0.03771 -0.02057,-0.01028 -0.04456,-0.02742 -0.07199,-0.04456 -0.02742,-0.01714 -0.05485,-0.04114 -0.07884,-0.06856 -0.024,-0.02742 -0.03428,-0.06856 -0.03428,-0.113125 0,-0.05828 0.02742,-0.109696 0.07884,-0.157688 0.05485,-0.04799 0.133693,-0.08227 0.239961,-0.106268 -0.106268,-0.05485 -0.188541,-0.123409 -0.246817,-0.212537 -0.05828,-0.08913 -0.08913,-0.185113 -0.08913,-0.287953 0,-0.116553 0.03085,-0.219393 0.09598,-0.305093 0.0617,-0.0857 0.154261,-0.150833 0.270813,-0.198825 0.116553,-0.04456 0.257101,-0.06856 0.421646,-0.06856 0.116552,0 0.215964,0.01371 0.294809,0.04114 0.07884,0.02742 0.15426,0.06513 0.22282,0.116552 0.01714,-0.0069 0.04799,-0.02057 0.08913,-0.03771 0.04114,-0.01714 0.0857,-0.03428 0.133692,-0.05485 0.04799,-0.02057 0.09256,-0.03771 0.137121,-0.05828 0.04456,-0.02057 0.07542,-0.03085 0.10284,-0.04114 v 0.298237 c 0,0 -0.318805,0.05828 -0.318805,0.05828 0.01714,0.03771 0.03428,0.07884 0.04456,0.123408 0.01028,0.04457 0.01371,0.0857 0.01371,0.123409 0,0.106268 -0.02742,0.202252 -0.08227,0.287953 -0.05485,0.0857 -0.140549,0.15426 -0.250245,0.20568 -0.113124,0.05142 -0.250245,0.07542 -0.418217,0.07542 -0.01371,0 -0.03085,0 -0.05485,0 -0.02057,0 -0.04114,0 -0.05485,0 -0.123408,0 -0.209109,0.01714 -0.253673,0.04114 -0.04456,0.024 -0.06856,0.05142 -0.06856,0.07884 0,0.03428 0.02742,0.05828 0.07884,0.06856 0.05142,0.01371 0.140549,0.024 0.267385,0.03428 0.04456,0 0.102841,0.0034 0.167973,0.01028 0.06856,0 0.140548,0.0069 0.226249,0.01371 0.18854,0.01028 0.335945,0.05828 0.435357,0.143976 0.09941,0.0857 0.154261,0.198825 0.154261,0.342801 0,0.164545 -0.07199,0.298237 -0.219393,0.401078 -0.147405,0.10284 -0.370225,0.15426 -0.668462,0.15426 z m 0.05828,-0.209109 c 0.167972,0 0.294809,-0.024 0.383937,-0.07542 0.08913,-0.05142 0.133693,-0.126836 0.133693,-0.226249 0,-0.07199 -0.02743,-0.130264 -0.08227,-0.174828 -0.05485,-0.04799 -0.13712,-0.07199 -0.246817,-0.07884 L 53.3058,13.801274 c -0.04456,0 -0.09256,0.01028 -0.140549,0.03428 -0.04799,0.024 -0.08913,0.05828 -0.123408,0.10284 -0.03428,0.04456 -0.05142,0.09598 -0.05142,0.150832 0,0.09599 0.05142,0.171401 0.15426,0.222821 0.102841,0.05485 0.263957,0.07884 0.479922,0.07884 z m -0.05485,-1.288932 c 0.130264,0 0.233104,-0.03085 0.315377,-0.09256 0.07884,-0.0617 0.11998,-0.150833 0.11998,-0.267385 0,-0.116553 -0.04114,-0.212537 -0.11998,-0.277669 -0.07884,-0.06513 -0.185113,-0.09598 -0.315377,-0.09598 -0.130265,0 -0.239961,0.03085 -0.322233,0.09598 -0.08227,0.06513 -0.119981,0.157688 -0.119981,0.277669 0,0.113124 0.03771,0.202252 0.116552,0.263957 0.07885,0.0617 0.185113,0.09598 0.325662,0.09598 z"
       id="path213"
       style="stroke-width:0.190598;fill:#c72426;fill-opacity:1" />
    <path
       d="m 19.820973,8.0936338 c 0.04457,-1.8854065 -1.066111,-3.5925564 -3.040646,-3.8188052 -0.939275,-0.082272 -1.929971,0.2571009 -2.670421,0.857003 0,-0.099412 0,-0.1953967 0.01028,-0.294809 0.024,-1.0558276 0.04114,-3.181195 0.03428,-4.2370226 h -2.063663 v 7.9564154 c 0,0.061704 -0.0034,0.1199804 -0.0069,0.1816846 0.01371,1.751714 0.0034,3.503428 0.0069,5.251714 h 2.063663 c 0,0 0,-3.750245 0,-4.9123408 v 0 c 0,0 0,-0.4627816 0,-0.9049951 0.02057,-0.5964741 0.133692,-1.2203722 0.58619,-1.5666014 0.53477,-0.4045054 1.504897,-0.4730657 2.118511,-0.1988247 0.521058,0.2468168 0.716455,0.6204701 0.850147,1.1929481 0.123409,0.7644466 0.024,5.5259549 0.05142,6.4035259 0,0 2.063663,0 2.063663,0 -0.0034,-0.411361 0.0069,-5.6322232 0,-5.9098922 z"
       id="path217"
       style="stroke-width:0.190598;fill:#c72426;fill-opacity:1" />
    <path
       d="m 34.845949,12.056415 c 0,0 -0.01714,0 -0.02742,0.0034 0,-1.659157 0.0034,-3.7913806 0,-3.9662092 0.05828,-1.8134182 -1.08668,-3.6919687 -3.037218,-3.8325172 -1.216945,-0.095984 -2.608717,0.3359452 -3.36288,1.3403526 -0.521058,-0.7233105 -1.302644,-1.2375122 -2.303624,-1.3437806 -0.315377,-0.01714 -0.634182,0.00686 -0.949559,0.071988 -0.627326,0.1199805 -1.230656,0.4045054 -1.72429,0.8021548 -0.0069,-0.284525 -0.0069,-0.5656219 0,-0.8501469 h -2.022527 v 4.2747307 c 0,0.061704 -0.0034,0.1199804 -0.0069,0.1816846 0.0034,0.4387855 0.0069,0.874143 0.0069,1.3129292 0,0.191968 0,0.387365 0,0.579334 v 1.467189 c 0,0.630754 0,1.261508 0,1.892262 v 0 0.01371 h 2.063663 l 0.0069,-2.43046 V 9.1426054 c -0.0034,-0.1645446 -0.0034,-0.56905 -0.0069,-1.0352596 0,-0.030852 0,-0.061704 0.0034,-0.089128 0.024,-0.3839373 0.09598,-0.7678746 0.281097,-1.0729677 0.05485,-0.089128 0.116552,-0.1714005 0.191969,-0.2468168 0.0034,-0.00343 0.01028,-0.00686 0.01371,-0.013712 0.02742,-0.027424 0.05828,-0.054848 0.09256,-0.078844 0.113124,-0.0857 0.246817,-0.1542606 0.390793,-0.2091087 0.113125,-0.044564 0.229677,-0.078844 0.353086,-0.1028404 0.140548,-0.027424 0.284525,-0.044564 0.431929,-0.047992 0.04799,0 0.09598,0 0.143977,0 0.05142,0 0.106268,0.00343 0.157688,0.010284 0.233105,0.020568 0.452498,0.071988 0.641038,0.1542605 0.260529,0.1234084 0.438786,0.277669 0.572478,0.4730656 0.04114,0.065132 0.07885,0.1336925 0.113125,0.2056807 0.06856,0.1508326 0.123408,0.3188051 0.167972,0.5142018 0.01028,0.054848 0.01714,0.1302645 0.024,0.2193928 0,0.030852 0.0034,0.061704 0.0069,0.095984 0.0034,0.089128 0.01028,0.1885406 0.01371,0.298237 0,0.00343 0,0.00686 0,0.010284 0,0.092556 0.0069,0.1953966 0.0069,0.301665 0,0.00343 0,0.010284 0,0.013712 -0.0069,0.065132 -0.0069,0.1302645 -0.0069,0.1953967 0.01028,1.1792361 0.0069,2.3550437 0.0069,3.5342797 0,0.08227 0,0.164545 0,0.243389 0,0.150833 0,0.298237 0,0.435358 0,0.13712 0,0.267384 0,0.383937 0,0.298237 0,0.527914 0.0069,0.665034 0,0 0.582762,0 1.127816,0 0.126837,0 0.253673,0 0.370226,0 0.116552,0 0.22282,0 0.311949,0 h 0.253673 c 0,0 0,-0.01028 0,-0.01371 v 0 c 0,0 0,-1.10382 0,-2.296768 0,-0.397649 0,-0.812439 0,-1.213516 0,-0.0857 0,-0.171401 0,-0.253673 0,-0.5039173 0,-0.9735549 0,-1.3437802 0,-0.061704 0,-0.1199804 0,-0.1748286 0,-0.1131244 0,-0.2125367 0,-0.294809 0,-0.1028404 0,-0.1851127 0,-0.2399608 0.01714,-0.4833497 0.09598,-1.0009795 0.353085,-1.3232126 0.349657,-0.4524976 0.867287,-0.575906 1.460333,-0.593046 0.579334,-0.020568 1.134672,0.1439765 1.439765,0.599902 0.219393,0.3016651 0.349657,0.8124388 0.353085,1.2409403 v 0.6581783 c 0,0 0,5.2517136 0,5.2517136 0,0 2.063663,0 2.063663,0 v 0 c 0,0 2.091087,0 2.091087,0 v -2.063663 c -0.596474,-0.0069 -1.333496,-0.024 -2.067091,0.116552 z"
       id="path219"
       style="stroke-width:0.190598;fill:#c72426;fill-opacity:1" />
    <path
       d="m 5.9101016,4.1548482 v 0 C 3.8430104,4.1822723 1.978172,5.1352596 1.3302778,7.2057787 0.84692814,8.727816 0.99776066,10.335554 1.8547636,11.699902 1.9336079,11.819883 2.0227362,11.933007 2.1187205,12.039275 1.4159781,11.915867 0.70980766,11.929579 2.092218e-4,11.936435 v 2.063663 H 5.2347832 V 12.004995 C 3.7573102,11.806171 3.1848322,10.805191 3.1676921,9.029481 3.1162719,7.0720863 4.0212671,6.0128306 5.9169576,5.9716945 v 0 c 1.2169442,0.013712 2.3001959,0.572478 2.6018609,1.8031342 0.2056808,0.7644466 0.1919687,1.7894222 0.010284,2.5538683 -0.2399608,1.066112 -0.9838394,1.549462 -1.9333987,1.676298 v 1.947111 C 6.9727852,13.91097 7.3601506,13.84241 7.7543719,13.722429 10.531061,12.90999 11.250944,9.7082274 10.486497,7.2126348 9.8317471,5.1558277 7.9771927,4.1857003 5.9169576,4.1548482 Z"
       id="path221"
       style="stroke-width:0.190598;fill:#c72426;fill-opacity:1" />
  </g>
  <g
     inkscape:groupmode="layer"
     id="layer3"
     inkscape:label="Ebene 1" />
</svg>
